<svg class="railroad-diagram" height="80" viewBox="0 0 448 80" width="448" xmlns="http://www.w3.org/2000/svg">
<g transform="translate(.5 .5)">
<style type="text/css">
svg.railroad-diagram path {
    stroke-width: 3;
    stroke: black;
    fill: rgba(0,0,0,0);
}
svg.railroad-diagram text {
    font-family: "Consolas", "Monospace";
    font-size: 14px;
    font-weight: bold;
    text-anchor: middle;
}
svg.railroad-diagram text.diagram-text {
    font-size: 12px;
}
svg.railroad-diagram text.diagram-arrow {
    font-size: 16px;
}
svg.railroad-diagram text.label {
    text-anchor: start;
}
svg.railroad-diagram text.comment {
    font-family: "Consolas", "Monospace";
    font-size: 12px;
    font-style: italic;
}
svg.railroad-diagram g.non-terminal text {
    font-style: italic;
}
svg.railroad-diagram rect {
    stroke-width: 3;
    stroke: black;
    fill: #ddeeff;
}
svg.railroad-diagram path.diagram-text {
    stroke-width: 3;
    stroke: black;
    fill: white;
    cursor: help;
}
svg.railroad-diagram g.diagram-text:hover path.diagram-text {
    fill: #eee;
}
        </style><path d="M 20 30 v 20 m 10 -20 v 20 m -10 -10 h 20.5"></path><path d="M40 40h10"></path><g class="non-terminal">
<path d="M50 40h0"></path><path d="M102 40h0"></path><rect height="22" width="52" x="50" y="29"></rect><a href="https://rspeele.gitbooks.io/rezoom-sql/doc/Language/Name.html#name"><text x="76" y="44">name</text><text x="76" y="44">name</text></a></g><path d="M102 40h10"></path><path d="M112 40h10"></path><g class="non-terminal">
<path d="M122 40h0"></path><path d="M214 40h0"></path><rect height="22" width="92" x="122" y="29"></rect><a href="https://rspeele.gitbooks.io/rezoom-sql/doc/Language/DataTypes.html#type-name"><text x="168" y="44">type-name</text><text x="168" y="44">type-name</text></a></g><path d="M214 40h10"></path><g>
<path d="M224 40h0"></path><path d="M408 40h0"></path><path d="M224 40a10 10 0 0 0 10 -10v0a10 10 0 0 1 10 -10"></path><g>
<path d="M244 20h144"></path></g><path d="M388 20a10 10 0 0 1 10 10v0a10 10 0 0 0 10 10"></path><path d="M224 40h20"></path><g>
<path d="M244 40h0"></path><path d="M388 40h0"></path><path d="M244 40h10"></path><g class="non-terminal">
<path d="M254 40h0"></path><path d="M378 40h0"></path><rect height="22" width="124" x="254" y="29"></rect><a href="https://rspeele.gitbooks.io/rezoom-sql/doc/Language/CreateTableStmt.html#column-constraint"><text x="316" y="44">compound-expr</text><text x="316" y="44">compound-expr</text></a></g><path d="M378 40h10"></path><path d="M254 40a10 10 0 0 0 -10 10v0a10 10 0 0 0 10 10"></path><g>
<path d="M254 60h124"></path></g><path d="M378 60a10 10 0 0 0 10 -10v0a10 10 0 0 0 -10 -10"></path></g><path d="M388 40h20"></path></g><path d="M 408 40 h 20 m -10 -10 v 20 m 10 -20 v 20"></path></g></svg>