<svg class="railroad-diagram" height="82" viewBox="0 0 348 82" width="348" xmlns="http://www.w3.org/2000/svg">
<g transform="translate(.5 .5)">
<style type="text/css">
svg.railroad-diagram path {
    stroke-width: 3;
    stroke: black;
    fill: rgba(0,0,0,0);
}
svg.railroad-diagram text {
    font-family: "Consolas", "Monospace";
    font-size: 14px;
    font-weight: bold;
    text-anchor: middle;
}
svg.railroad-diagram text.diagram-text {
    font-size: 12px;
}
svg.railroad-diagram text.diagram-arrow {
    font-size: 16px;
}
svg.railroad-diagram text.label {
    text-anchor: start;
}
svg.railroad-diagram text.comment {
    font-family: "Consolas", "Monospace";
    font-size: 12px;
    font-style: italic;
}
svg.railroad-diagram g.non-terminal text {
    font-style: italic;
}
svg.railroad-diagram rect {
    stroke-width: 3;
    stroke: black;
    fill: #ddeeff;
}
svg.railroad-diagram path.diagram-text {
    stroke-width: 3;
    stroke: black;
    fill: white;
    cursor: help;
}
svg.railroad-diagram g.diagram-text:hover path.diagram-text {
    fill: #eee;
}
        </style><path d="M 20 21 v 20 m 10 -20 v 20 m -10 -10 h 20.5"></path><g>
<path d="M40 31h0"></path><path d="M236 31h0"></path><path d="M40 31h20"></path><g>
<path d="M60 31h156"></path></g><path d="M216 31h20"></path><path d="M40 31a10 10 0 0 1 10 10v0a10 10 0 0 0 10 10"></path><g>
<path d="M60 51h0"></path><path d="M216 51h0"></path><g class="non-terminal">
<path d="M60 51h0"></path><path d="M168 51h0"></path><rect height="22" width="108" x="60" y="40"></rect><a href="https://rspeele.gitbooks.io/rezoom-sql/doc/Language/Name.html#object-name"><text x="114" y="55">object-name</text><text x="114" y="55">object-name</text></a></g><path d="M168 51h10"></path><path d="M178 51h10"></path><g class="terminal">
<path d="M188 51h0"></path><path d="M216 51h0"></path><rect height="22" rx="10" ry="10" width="28" x="188" y="40"></rect><text x="202" y="55">.</text></g></g><path d="M216 51a10 10 0 0 0 10 -10v0a10 10 0 0 1 10 -10"></path></g><path d="M236 31h10"></path><g class="non-terminal">
<path d="M246 31h0"></path><path d="M298 31h0"></path><rect height="22" width="52" x="246" y="20"></rect><a href="https://rspeele.gitbooks.io/rezoom-sql/doc/Language/Name.html#name"><text x="272" y="35">name</text><text x="272" y="35">name</text></a></g><path d="M298 31h10"></path><path d="M 308 31 h 20 m -10 -10 v 20 m 10 -20 v 20"></path></g></svg>