<svg class="railroad-diagram" height="889" viewBox="0 0 630 889" width="630" xmlns="http://www.w3.org/2000/svg">
<g transform="translate(.5 .5)">
<style type="text/css">
svg.railroad-diagram path {
    stroke-width: 3;
    stroke: black;
    fill: rgba(0,0,0,0);
}
svg.railroad-diagram text {
    font-family: "Consolas", "Monospace";
    font-size: 14px;
    font-weight: bold;
    text-anchor: middle;
}
svg.railroad-diagram text.diagram-text {
    font-size: 12px;
}
svg.railroad-diagram text.diagram-arrow {
    font-size: 16px;
}
svg.railroad-diagram text.label {
    text-anchor: start;
}
svg.railroad-diagram text.comment {
    font-family: "Consolas", "Monospace";
    font-size: 12px;
    font-style: italic;
}
svg.railroad-diagram g.non-terminal text {
    font-style: italic;
}
svg.railroad-diagram rect {
    stroke-width: 3;
    stroke: black;
    fill: #ddeeff;
}
svg.railroad-diagram path.diagram-text {
    stroke-width: 3;
    stroke: black;
    fill: white;
    cursor: help;
}
svg.railroad-diagram g.diagram-text:hover path.diagram-text {
    fill: #eee;
}
        </style><path d="M 20 351 v 20 m 10 -20 v 20 m -10 -10 h 20.5"></path><g>
<path d="M40 361h0"></path><path d="M590 361h0"></path><path d="M40 361a10 10 0 0 0 10 -10v-130a10 10 0 0 1 10 -10"></path><g>
<path d="M60 211h182"></path><path d="M388 211h182"></path><g>
<path d="M242 211h0"></path><path d="M326 211h0"></path><path d="M242 211h20"></path><g class="terminal">
<path d="M262 211h0"></path><path d="M306 211h0"></path><rect height="22" rx="10" ry="10" width="44" x="262" y="200"></rect><text x="284" y="215">NOT</text></g><path d="M306 211h20"></path><path d="M242 211a10 10 0 0 1 10 10v10a10 10 0 0 0 10 10"></path><g class="terminal">
<path d="M262 241h8"></path><path d="M298 241h8"></path><rect height="22" rx="10" ry="10" width="28" x="270" y="230"></rect><text x="284" y="245">~</text></g><path d="M306 241a10 10 0 0 0 10 -10v-10a10 10 0 0 1 10 -10"></path><path d="M242 211a10 10 0 0 1 10 10v40a10 10 0 0 0 10 10"></path><g class="terminal">
<path d="M262 271h8"></path><path d="M298 271h8"></path><rect height="22" rx="10" ry="10" width="28" x="270" y="260"></rect><text x="284" y="275">-</text></g><path d="M306 271a10 10 0 0 0 10 -10v-40a10 10 0 0 1 10 -10"></path><path d="M242 211a10 10 0 0 1 10 10v70a10 10 0 0 0 10 10"></path><g class="terminal">
<path d="M262 301h8"></path><path d="M298 301h8"></path><rect height="22" rx="10" ry="10" width="28" x="270" y="290"></rect><text x="284" y="305">+</text></g><path d="M306 301a10 10 0 0 0 10 -10v-70a10 10 0 0 1 10 -10"></path></g><path d="M326 211h10"></path><g class="non-terminal">
<path d="M336 211h0"></path><path d="M388 211h0"></path><rect height="22" width="52" x="336" y="200"></rect><a href="https://rspeele.gitbooks.io/rezoom-sql/doc/Language/Expr.html#expr"><text x="362" y="215">expr</text><text x="362" y="215">expr</text></a></g></g><path d="M570 211a10 10 0 0 1 10 10v130a10 10 0 0 0 10 10"></path><path d="M40 361a10 10 0 0 0 10 -10v-160a10 10 0 0 1 10 -10"></path><g>
<path d="M60 181h61"></path><path d="M509 181h61"></path><g class="terminal">
<path d="M121 181h0"></path><path d="M173 181h0"></path><rect height="22" rx="10" ry="10" width="52" x="121" y="170"></rect><text x="147" y="185">CAST</text></g><path d="M173 181h10"></path><path d="M183 181h10"></path><g class="terminal">
<path d="M193 181h0"></path><path d="M221 181h0"></path><rect height="22" rx="10" ry="10" width="28" x="193" y="170"></rect><text x="207" y="185">(</text></g><path d="M221 181h10"></path><path d="M231 181h10"></path><g class="non-terminal">
<path d="M241 181h0"></path><path d="M293 181h0"></path><rect height="22" width="52" x="241" y="170"></rect><a href="https://rspeele.gitbooks.io/rezoom-sql/doc/Language/Expr.html#expr"><text x="267" y="185">expr</text><text x="267" y="185">expr</text></a></g><path d="M293 181h10"></path><path d="M303 181h10"></path><g class="terminal">
<path d="M313 181h0"></path><path d="M349 181h0"></path><rect height="22" rx="10" ry="10" width="36" x="313" y="170"></rect><text x="331" y="185">AS</text></g><path d="M349 181h10"></path><path d="M359 181h10"></path><g class="non-terminal">
<path d="M369 181h0"></path><path d="M461 181h0"></path><rect height="22" width="92" x="369" y="170"></rect><a href="https://rspeele.gitbooks.io/rezoom-sql/doc/Language/DataTypes.html#type-name"><text x="415" y="185">type-name</text><text x="415" y="185">type-name</text></a></g><path d="M461 181h10"></path><path d="M471 181h10"></path><g class="terminal">
<path d="M481 181h0"></path><path d="M509 181h0"></path><rect height="22" rx="10" ry="10" width="28" x="481" y="170"></rect><text x="495" y="185">)</text></g></g><path d="M570 181a10 10 0 0 1 10 10v160a10 10 0 0 0 10 10"></path><path d="M40 361a10 10 0 0 0 10 -10v-220a10 10 0 0 1 10 -10"></path><g>
<path d="M60 121h143"></path><path d="M427 121h143"></path><g class="terminal">
<path d="M203 121h0"></path><path d="M231 121h0"></path><rect height="22" rx="10" ry="10" width="28" x="203" y="110"></rect><text x="217" y="125">(</text></g><path d="M231 121h10"></path><g>
<path d="M241 121h0"></path><path d="M389 121h0"></path><path d="M241 121h20"></path><g class="non-terminal">
<path d="M261 121h28"></path><path d="M341 121h28"></path><rect height="22" width="52" x="289" y="110"></rect><a href="https://rspeele.gitbooks.io/rezoom-sql/doc/Language/Expr.html#expr"><text x="315" y="125">expr</text><text x="315" y="125">expr</text></a></g><path d="M369 121h20"></path><path d="M241 121a10 10 0 0 1 10 10v10a10 10 0 0 0 10 10"></path><g class="non-terminal">
<path d="M261 151h0"></path><path d="M369 151h0"></path><rect height="22" width="108" x="261" y="140"></rect><a href="https://rspeele.gitbooks.io/rezoom-sql/doc/Language/SelectStmt.html#select-stmt"><text x="315" y="155">select-stmt</text><text x="315" y="155">select-stmt</text></a></g><path d="M369 151a10 10 0 0 0 10 -10v-10a10 10 0 0 1 10 -10"></path></g><path d="M389 121h10"></path><g class="terminal">
<path d="M399 121h0"></path><path d="M427 121h0"></path><rect height="22" rx="10" ry="10" width="28" x="399" y="110"></rect><text x="413" y="125">)</text></g></g><path d="M570 121a10 10 0 0 1 10 10v220a10 10 0 0 0 10 10"></path><path d="M40 361a10 10 0 0 0 10 -10v-250a10 10 0 0 1 10 -10"></path><g class="non-terminal">
<path d="M60 91h201"></path><path d="M369 91h201"></path><rect height="22" width="108" x="261" y="80"></rect><a href="https://rspeele.gitbooks.io/rezoom-sql/doc/Language/Name.html#column-name"><text x="315" y="95">column-name</text><text x="315" y="95">column-name</text></a></g><path d="M570 91a10 10 0 0 1 10 10v250a10 10 0 0 0 10 10"></path><path d="M40 361a10 10 0 0 0 10 -10v-280a10 10 0 0 1 10 -10"></path><g class="non-terminal">
<path d="M60 61h185"></path><path d="M385 61h185"></path><rect height="22" width="140" x="245" y="50"></rect><text x="315" y="65">@bind-parameter</text></g><path d="M570 61a10 10 0 0 1 10 10v280a10 10 0 0 0 10 10"></path><path d="M40 361a10 10 0 0 0 10 -10v-310a10 10 0 0 1 10 -10"></path><g class="non-terminal">
<path d="M60 31h217"></path><path d="M353 31h217"></path><rect height="22" width="76" x="277" y="20"></rect><a href="https://rspeele.gitbooks.io/rezoom-sql/doc/Language/Literal.html#literal"><text x="315" y="35">literal</text><text x="315" y="35">literal</text></a></g><path d="M570 31a10 10 0 0 1 10 10v310a10 10 0 0 0 10 10"></path><path d="M40 361h20"></path><g>
<path d="M60 361h0"></path><path d="M570 361h0"></path><g class="non-terminal">
<path d="M60 361h0"></path><path d="M112 361h0"></path><rect height="22" width="52" x="60" y="350"></rect><a href="https://rspeele.gitbooks.io/rezoom-sql/doc/Language/Expr.html#expr"><text x="86" y="365">expr</text><text x="86" y="365">expr</text></a></g><path d="M112 361h10"></path><g>
<path d="M122 361h0"></path><path d="M570 361h0"></path><path d="M122 361a10 10 0 0 0 10 -10v-10a10 10 0 0 1 10 -10"></path><g>
<path d="M142 331h130"></path><path d="M420 331h130"></path><g class="terminal">
<path d="M272 331h0"></path><path d="M348 331h0"></path><rect height="22" rx="10" ry="10" width="76" x="272" y="320"></rect><text x="310" y="335">COLLATE</text></g><path d="M348 331h10"></path><path d="M358 331h10"></path><g class="non-terminal">
<path d="M368 331h0"></path><path d="M420 331h0"></path><rect height="22" width="52" x="368" y="320"></rect><a href="https://rspeele.gitbooks.io/rezoom-sql/doc/Language/Name.html#name"><text x="394" y="335">name</text><text x="394" y="335">name</text></a></g></g><path d="M550 331a10 10 0 0 1 10 10v10a10 10 0 0 0 10 10"></path><path d="M122 361h20"></path><g>
<path d="M142 361h98"></path><path d="M452 361h98"></path><g class="non-terminal">
<path d="M240 361h0"></path><path d="M380 361h0"></path><rect height="22" width="140" x="240" y="350"></rect><text x="310" y="365">binary-operator</text></g><path d="M380 361h10"></path><path d="M390 361h10"></path><g class="non-terminal">
<path d="M400 361h0"></path><path d="M452 361h0"></path><rect height="22" width="52" x="400" y="350"></rect><a href="https://rspeele.gitbooks.io/rezoom-sql/doc/Language/Expr.html#expr"><text x="426" y="365">expr</text><text x="426" y="365">expr</text></a></g></g><path d="M550 361h20"></path><path d="M122 361a10 10 0 0 1 10 10v10a10 10 0 0 0 10 10"></path><g>
<path d="M142 391h0"></path><path d="M550 391h0"></path><g>
<path d="M142 391h0"></path><path d="M226 391h0"></path><path d="M142 391h20"></path><g>
<path d="M162 391h44"></path></g><path d="M206 391h20"></path><path d="M142 391a10 10 0 0 1 10 10v0a10 10 0 0 0 10 10"></path><g class="terminal">
<path d="M162 411h0"></path><path d="M206 411h0"></path><rect height="22" rx="10" ry="10" width="44" x="162" y="400"></rect><text x="184" y="415">NOT</text></g><path d="M206 411a10 10 0 0 0 10 -10v0a10 10 0 0 1 10 -10"></path></g><path d="M226 391h10"></path><g class="terminal">
<path d="M236 391h0"></path><path d="M288 391h0"></path><rect height="22" rx="10" ry="10" width="52" x="236" y="380"></rect><text x="262" y="395">LIKE</text></g><path d="M288 391h10"></path><path d="M298 391h10"></path><g class="non-terminal">
<path d="M308 391h0"></path><path d="M360 391h0"></path><rect height="22" width="52" x="308" y="380"></rect><a href="https://rspeele.gitbooks.io/rezoom-sql/doc/Language/Expr.html#expr"><text x="334" y="395">expr</text><text x="334" y="395">expr</text></a></g><path d="M360 391h10"></path><g>
<path d="M370 391h0"></path><path d="M550 391h0"></path><path d="M370 391h20"></path><g>
<path d="M390 391h140"></path></g><path d="M530 391h20"></path><path d="M370 391a10 10 0 0 1 10 10v0a10 10 0 0 0 10 10"></path><g>
<path d="M390 411h0"></path><path d="M530 411h0"></path><g class="terminal">
<path d="M390 411h0"></path><path d="M458 411h0"></path><rect height="22" rx="10" ry="10" width="68" x="390" y="400"></rect><text x="424" y="415">ESCAPE</text></g><path d="M458 411h10"></path><path d="M468 411h10"></path><g class="non-terminal">
<path d="M478 411h0"></path><path d="M530 411h0"></path><rect height="22" width="52" x="478" y="400"></rect><a href="https://rspeele.gitbooks.io/rezoom-sql/doc/Language/Expr.html#expr"><text x="504" y="415">expr</text><text x="504" y="415">expr</text></a></g></g><path d="M530 411a10 10 0 0 0 10 -10v0a10 10 0 0 1 10 -10"></path></g></g><path d="M550 391a10 10 0 0 0 10 -10v-10a10 10 0 0 1 10 -10"></path><path d="M122 361a10 10 0 0 1 10 10v60a10 10 0 0 0 10 10"></path><g>
<path d="M142 441h15"></path><path d="M535 441h15"></path><g>
<path d="M157 441h0"></path><path d="M241 441h0"></path><path d="M157 441h20"></path><g>
<path d="M177 441h44"></path></g><path d="M221 441h20"></path><path d="M157 441a10 10 0 0 1 10 10v0a10 10 0 0 0 10 10"></path><g class="terminal">
<path d="M177 461h0"></path><path d="M221 461h0"></path><rect height="22" rx="10" ry="10" width="44" x="177" y="450"></rect><text x="199" y="465">NOT</text></g><path d="M221 461a10 10 0 0 0 10 -10v0a10 10 0 0 1 10 -10"></path></g><path d="M241 441h10"></path><g class="terminal">
<path d="M251 441h0"></path><path d="M327 441h0"></path><rect height="22" rx="10" ry="10" width="76" x="251" y="430"></rect><text x="289" y="445">BETWEEN</text></g><path d="M327 441h10"></path><path d="M337 441h10"></path><g class="non-terminal">
<path d="M347 441h0"></path><path d="M399 441h0"></path><rect height="22" width="52" x="347" y="430"></rect><a href="https://rspeele.gitbooks.io/rezoom-sql/doc/Language/Expr.html#expr"><text x="373" y="445">expr</text><text x="373" y="445">expr</text></a></g><path d="M399 441h10"></path><path d="M409 441h10"></path><g class="terminal">
<path d="M419 441h0"></path><path d="M463 441h0"></path><rect height="22" rx="10" ry="10" width="44" x="419" y="430"></rect><text x="441" y="445">AND</text></g><path d="M463 441h10"></path><path d="M473 441h10"></path><g class="non-terminal">
<path d="M483 441h0"></path><path d="M535 441h0"></path><rect height="22" width="52" x="483" y="430"></rect><a href="https://rspeele.gitbooks.io/rezoom-sql/doc/Language/Expr.html#expr"><text x="509" y="445">expr</text><text x="509" y="445">expr</text></a></g></g><path d="M550 441a10 10 0 0 0 10 -10v-60a10 10 0 0 1 10 -10"></path><path d="M122 361a10 10 0 0 1 10 10v149a10 10 0 0 0 10 10"></path><g>
<path d="M142 530h0"></path><path d="M550 530h0"></path><g>
<path d="M142 530h0"></path><path d="M226 530h0"></path><path d="M142 530h20"></path><g>
<path d="M162 530h44"></path></g><path d="M206 530h20"></path><path d="M142 530a10 10 0 0 1 10 10v0a10 10 0 0 0 10 10"></path><g class="terminal">
<path d="M162 550h0"></path><path d="M206 550h0"></path><rect height="22" rx="10" ry="10" width="44" x="162" y="539"></rect><text x="184" y="554">NOT</text></g><path d="M206 550a10 10 0 0 0 10 -10v0a10 10 0 0 1 10 -10"></path></g><path d="M226 530h10"></path><g class="terminal">
<path d="M236 530h0"></path><path d="M272 530h0"></path><rect height="22" rx="10" ry="10" width="36" x="236" y="519"></rect><text x="254" y="534">IN</text></g><path d="M272 530h10"></path><g>
<path d="M282 530h0"></path><path d="M550 530h0"></path><path d="M282 530a10 10 0 0 0 10 -10v-19a10 10 0 0 1 10 -10"></path><g class="non-terminal">
<path d="M302 491h60"></path><path d="M470 491h60"></path><rect height="22" width="108" x="362" y="480"></rect><a href="https://rspeele.gitbooks.io/rezoom-sql/doc/Language/Name.html#object-name"><text x="416" y="495">object-name</text><text x="416" y="495">object-name</text></a></g><path d="M530 491a10 10 0 0 1 10 10v19a10 10 0 0 0 10 10"></path><path d="M282 530h20"></path><g>
<path d="M302 530h0"></path><path d="M530 530h0"></path><g class="terminal">
<path d="M302 530h0"></path><path d="M330 530h0"></path><rect height="22" rx="10" ry="10" width="28" x="302" y="519"></rect><text x="316" y="534">(</text></g><path d="M330 530h10"></path><g>
<path d="M340 530h0"></path><path d="M492 530h0"></path><path d="M340 530h20"></path><g>
<path d="M360 530h0"></path><path d="M472 530h0"></path><path d="M360 530a10 10 0 0 0 10 -10v0a10 10 0 0 1 10 -10"></path><g>
<path d="M380 510h72"></path></g><path d="M452 510a10 10 0 0 1 10 10v0a10 10 0 0 0 10 10"></path><path d="M360 530h20"></path><g>
<path d="M380 530h0"></path><path d="M452 530h0"></path><path d="M380 530h10"></path><g class="non-terminal">
<path d="M390 530h0"></path><path d="M442 530h0"></path><rect height="22" width="52" x="390" y="519"></rect><a href="https://rspeele.gitbooks.io/rezoom-sql/doc/Language/Expr.html#expr"><text x="416" y="534">expr</text><text x="416" y="534">expr</text></a></g><path d="M442 530h10"></path><path d="M390 530a10 10 0 0 0 -10 10v10a10 10 0 0 0 10 10"></path><g class="terminal">
<path d="M390 560h12"></path><path d="M430 560h12"></path><rect height="22" rx="10" ry="10" width="28" x="402" y="549"></rect><text x="416" y="564">,</text></g><path d="M442 560a10 10 0 0 0 10 -10v-10a10 10 0 0 0 -10 -10"></path></g><path d="M452 530h20"></path></g><path d="M472 530h20"></path><path d="M340 530a10 10 0 0 1 10 10v40a10 10 0 0 0 10 10"></path><g class="non-terminal">
<path d="M360 590h2"></path><path d="M470 590h2"></path><rect height="22" width="108" x="362" y="579"></rect><a href="https://rspeele.gitbooks.io/rezoom-sql/doc/Language/SelectStmt.html#select-stmt"><text x="416" y="594">select-stmt</text><text x="416" y="594">select-stmt</text></a></g><path d="M472 590a10 10 0 0 0 10 -10v-40a10 10 0 0 1 10 -10"></path></g><path d="M492 530h10"></path><g class="terminal">
<path d="M502 530h0"></path><path d="M530 530h0"></path><rect height="22" rx="10" ry="10" width="28" x="502" y="519"></rect><text x="516" y="534">)</text></g></g><path d="M530 530h20"></path><path d="M282 530a10 10 0 0 1 10 10v70a10 10 0 0 0 10 10"></path><g class="non-terminal">
<path d="M302 620h44"></path><path d="M486 620h44"></path><rect height="22" width="140" x="346" y="609"></rect><text x="416" y="624">@bind-parameter</text></g><path d="M530 620a10 10 0 0 0 10 -10v-70a10 10 0 0 1 10 -10"></path></g></g><path d="M550 530a10 10 0 0 0 10 -10v-149a10 10 0 0 1 10 -10"></path></g></g><path d="M570 361h20"></path><path d="M40 361a10 10 0 0 1 10 10v278a10 10 0 0 0 10 10"></path><g>
<path d="M60 659h7"></path><path d="M563 659h7"></path><g class="non-terminal">
<path d="M67 659h0"></path><path d="M191 659h0"></path><rect height="22" width="124" x="67" y="648"></rect><a href="https://rspeele.gitbooks.io/rezoom-sql/doc/Language/Name.html#name"><text x="129" y="663">function-name</text><text x="129" y="663">function-name</text></a></g><path d="M191 659h10"></path><path d="M201 659h10"></path><g class="terminal">
<path d="M211 659h0"></path><path d="M239 659h0"></path><rect height="22" rx="10" ry="10" width="28" x="211" y="648"></rect><text x="225" y="663">(</text></g><path d="M239 659h10"></path><g>
<path d="M249 659h0"></path><path d="M525 659h0"></path><path d="M249 659h20"></path><g>
<path d="M269 659h0"></path><path d="M505 659h0"></path><g>
<path d="M269 659h0"></path><path d="M393 659h0"></path><path d="M269 659h20"></path><g>
<path d="M289 659h84"></path></g><path d="M373 659h20"></path><path d="M269 659a10 10 0 0 1 10 10v0a10 10 0 0 0 10 10"></path><g class="terminal">
<path d="M289 679h0"></path><path d="M373 679h0"></path><rect height="22" rx="10" ry="10" width="84" x="289" y="668"></rect><text x="331" y="683">DISTINCT</text></g><path d="M373 679a10 10 0 0 0 10 -10v0a10 10 0 0 1 10 -10"></path></g><g>
<path d="M393 659h0"></path><path d="M505 659h0"></path><path d="M393 659a10 10 0 0 0 10 -10v0a10 10 0 0 1 10 -10"></path><g>
<path d="M413 639h72"></path></g><path d="M485 639a10 10 0 0 1 10 10v0a10 10 0 0 0 10 10"></path><path d="M393 659h20"></path><g>
<path d="M413 659h0"></path><path d="M485 659h0"></path><path d="M413 659h10"></path><g class="non-terminal">
<path d="M423 659h0"></path><path d="M475 659h0"></path><rect height="22" width="52" x="423" y="648"></rect><a href="https://rspeele.gitbooks.io/rezoom-sql/doc/Language/Expr.html#expr"><text x="449" y="663">expr</text><text x="449" y="663">expr</text></a></g><path d="M475 659h10"></path><path d="M423 659a10 10 0 0 0 -10 10v10a10 10 0 0 0 10 10"></path><g class="terminal">
<path d="M423 689h12"></path><path d="M463 689h12"></path><rect height="22" rx="10" ry="10" width="28" x="435" y="678"></rect><text x="449" y="693">,</text></g><path d="M475 689a10 10 0 0 0 10 -10v-10a10 10 0 0 0 -10 -10"></path></g><path d="M485 659h20"></path></g></g><path d="M505 659h20"></path><path d="M249 659a10 10 0 0 1 10 10v40a10 10 0 0 0 10 10"></path><g class="terminal">
<path d="M269 719h104"></path><path d="M401 719h104"></path><rect height="22" rx="10" ry="10" width="28" x="373" y="708"></rect><text x="387" y="723">&#42;</text></g><path d="M505 719a10 10 0 0 0 10 -10v-40a10 10 0 0 1 10 -10"></path></g><path d="M525 659h10"></path><g class="terminal">
<path d="M535 659h0"></path><path d="M563 659h0"></path><rect height="22" rx="10" ry="10" width="28" x="535" y="648"></rect><text x="549" y="663">)</text></g></g><path d="M570 659a10 10 0 0 0 10 -10v-278a10 10 0 0 1 10 -10"></path><path d="M40 361a10 10 0 0 1 10 10v368a10 10 0 0 0 10 10"></path><g>
<path d="M60 749h9"></path><path d="M69 749h10"></path><g>
<path d="M79 749h10"></path><path d="M541 749h10"></path><g class="terminal">
<path d="M89 749h0"></path><path d="M141 749h0"></path><rect height="22" rx="10" ry="10" width="52" x="89" y="738"></rect><text x="115" y="753">CASE</text></g><path d="M141 749h10"></path><g>
<path d="M151 749h0"></path><path d="M243 749h0"></path><path d="M151 749h20"></path><g>
<path d="M171 749h52"></path></g><path d="M223 749h20"></path><path d="M151 749a10 10 0 0 1 10 10v0a10 10 0 0 0 10 10"></path><g class="non-terminal">
<path d="M171 769h0"></path><path d="M223 769h0"></path><rect height="22" width="52" x="171" y="758"></rect><a href="https://rspeele.gitbooks.io/rezoom-sql/doc/Language/Expr.html#expr"><text x="197" y="773">expr</text><text x="197" y="773">expr</text></a></g><path d="M223 769a10 10 0 0 0 10 -10v0a10 10 0 0 1 10 -10"></path></g><path d="M243 749h10"></path><g>
<path d="M253 749h0"></path><path d="M541 749h0"></path><path d="M253 749h10"></path><g>
<path d="M263 749h0"></path><path d="M531 749h0"></path><g class="terminal">
<path d="M263 749h0"></path><path d="M315 749h0"></path><rect height="22" rx="10" ry="10" width="52" x="263" y="738"></rect><text x="289" y="753">WHEN</text></g><path d="M315 749h10"></path><path d="M325 749h10"></path><g class="non-terminal">
<path d="M335 749h0"></path><path d="M387 749h0"></path><rect height="22" width="52" x="335" y="738"></rect><a href="https://rspeele.gitbooks.io/rezoom-sql/doc/Language/Expr.html#expr"><text x="361" y="753">expr</text><text x="361" y="753">expr</text></a></g><path d="M387 749h10"></path><path d="M397 749h10"></path><g class="terminal">
<path d="M407 749h0"></path><path d="M459 749h0"></path><rect height="22" rx="10" ry="10" width="52" x="407" y="738"></rect><text x="433" y="753">THEN</text></g><path d="M459 749h10"></path><path d="M469 749h10"></path><g class="non-terminal">
<path d="M479 749h0"></path><path d="M531 749h0"></path><rect height="22" width="52" x="479" y="738"></rect><a href="https://rspeele.gitbooks.io/rezoom-sql/doc/Language/Expr.html#expr"><text x="505" y="753">expr</text><text x="505" y="753">expr</text></a></g></g><path d="M531 749h10"></path><path d="M263 749a10 10 0 0 0 -10 10v0a10 10 0 0 0 10 10"></path><g>
<path d="M263 769h268"></path></g><path d="M531 769a10 10 0 0 0 10 -10v0a10 10 0 0 0 -10 -10"></path></g></g><path d="M551 749a10 10 0 0 1 10 10v19a10 10 0 0 1 -10 10h-472a10 10 0 0 0 -10 10v0a10 10 0 0 0 10 10"></path><g>
<path d="M79 808h127"></path><path d="M424 808h127"></path><g>
<path d="M206 808h0"></path><path d="M370 808h0"></path><path d="M206 808h20"></path><g>
<path d="M226 808h124"></path></g><path d="M350 808h20"></path><path d="M206 808a10 10 0 0 1 10 10v0a10 10 0 0 0 10 10"></path><g>
<path d="M226 828h0"></path><path d="M350 828h0"></path><g class="terminal">
<path d="M226 828h0"></path><path d="M278 828h0"></path><rect height="22" rx="10" ry="10" width="52" x="226" y="817"></rect><text x="252" y="832">ELSE</text></g><path d="M278 828h10"></path><path d="M288 828h10"></path><g class="non-terminal">
<path d="M298 828h0"></path><path d="M350 828h0"></path><rect height="22" width="52" x="298" y="817"></rect><a href="https://rspeele.gitbooks.io/rezoom-sql/doc/Language/Expr.html#expr"><text x="324" y="832">expr</text><text x="324" y="832">expr</text></a></g></g><path d="M350 828a10 10 0 0 0 10 -10v0a10 10 0 0 1 10 -10"></path></g><path d="M370 808h10"></path><g class="terminal">
<path d="M380 808h0"></path><path d="M424 808h0"></path><rect height="22" rx="10" ry="10" width="44" x="380" y="797"></rect><text x="402" y="812">END</text></g></g><path d="M551 808h10"></path><path d="M561 808h9"></path></g><path d="M570 808a10 10 0 0 0 10 -10v-427a10 10 0 0 1 10 -10"></path><path d="M40 361a10 10 0 0 1 10 10v477a10 10 0 0 0 10 10"></path><g>
<path d="M60 858h109"></path><path d="M461 858h109"></path><g class="terminal">
<path d="M169 858h0"></path><path d="M237 858h0"></path><rect height="22" rx="10" ry="10" width="68" x="169" y="847"></rect><text x="203" y="862">EXISTS</text></g><path d="M237 858h10"></path><path d="M247 858h10"></path><g class="terminal">
<path d="M257 858h0"></path><path d="M285 858h0"></path><rect height="22" rx="10" ry="10" width="28" x="257" y="847"></rect><text x="271" y="862">(</text></g><path d="M285 858h10"></path><path d="M295 858h10"></path><g class="non-terminal">
<path d="M305 858h0"></path><path d="M413 858h0"></path><rect height="22" width="108" x="305" y="847"></rect><a href="https://rspeele.gitbooks.io/rezoom-sql/doc/Language/SelectStmt.html#select-stmt"><text x="359" y="862">select-stmt</text><text x="359" y="862">select-stmt</text></a></g><path d="M413 858h10"></path><path d="M423 858h10"></path><g class="terminal">
<path d="M433 858h0"></path><path d="M461 858h0"></path><rect height="22" rx="10" ry="10" width="28" x="433" y="847"></rect><text x="447" y="862">)</text></g></g><path d="M570 858a10 10 0 0 0 10 -10v-477a10 10 0 0 1 10 -10"></path></g><path d="M 590 361 h 20 m -10 -10 v 20 m 10 -20 v 20"></path></g></svg>