<svg class="railroad-diagram" height="152" viewBox="0 0 704 152" width="704" xmlns="http://www.w3.org/2000/svg">
<g transform="translate(.5 .5)">
<style type="text/css">
svg.railroad-diagram path {
    stroke-width: 3;
    stroke: black;
    fill: rgba(0,0,0,0);
}
svg.railroad-diagram text {
    font-family: "Consolas", "Monospace";
    font-size: 14px;
    font-weight: bold;
    text-anchor: middle;
}
svg.railroad-diagram text.diagram-text {
    font-size: 12px;
}
svg.railroad-diagram text.diagram-arrow {
    font-size: 16px;
}
svg.railroad-diagram text.label {
    text-anchor: start;
}
svg.railroad-diagram text.comment {
    font-family: "Consolas", "Monospace";
    font-size: 12px;
    font-style: italic;
}
svg.railroad-diagram g.non-terminal text {
    font-style: italic;
}
svg.railroad-diagram rect {
    stroke-width: 3;
    stroke: black;
    fill: #ddeeff;
}
svg.railroad-diagram path.diagram-text {
    stroke-width: 3;
    stroke: black;
    fill: white;
    cursor: help;
}
svg.railroad-diagram g.diagram-text:hover path.diagram-text {
    fill: #eee;
}
        </style><path d="M 20 21 v 20 m 10 -20 v 20 m -10 -10 h 20.5"></path><path d="M40 31h10"></path><g class="terminal">
<path d="M50 31h0"></path><path d="M118 31h0"></path><rect height="22" rx="10" ry="10" width="68" x="50" y="20"></rect><text x="84" y="35">INSERT</text></g><path d="M118 31h10"></path><path d="M128 31h10"></path><g class="terminal">
<path d="M138 31h0"></path><path d="M190 31h0"></path><rect height="22" rx="10" ry="10" width="52" x="138" y="20"></rect><text x="164" y="35">INTO</text></g><path d="M190 31h10"></path><path d="M200 31h10"></path><g class="non-terminal">
<path d="M210 31h0"></path><path d="M318 31h0"></path><rect height="22" width="108" x="210" y="20"></rect><a href="https://rspeele.gitbooks.io/rezoom-sql/doc/Language/Name.html#object-name"><text x="264" y="35">object-name</text><text x="264" y="35">object-name</text></a></g><path d="M318 31h10"></path><g>
<path d="M328 31h0"></path><path d="M664 31h0"></path><path d="M328 31h20"></path><g>
<path d="M348 31h0"></path><path d="M644 31h0"></path><g class="terminal">
<path d="M348 31h0"></path><path d="M376 31h0"></path><rect height="22" rx="10" ry="10" width="28" x="348" y="20"></rect><text x="362" y="35">(</text></g><path d="M376 31h10"></path><path d="M386 31h10"></path><g>
<path d="M396 31h0"></path><path d="M468 31h0"></path><path d="M396 31h10"></path><g class="non-terminal">
<path d="M406 31h0"></path><path d="M458 31h0"></path><rect height="22" width="52" x="406" y="20"></rect><a href="https://rspeele.gitbooks.io/rezoom-sql/doc/Language/Name.html#name"><text x="432" y="35">name</text><text x="432" y="35">name</text></a></g><path d="M458 31h10"></path><path d="M406 31a10 10 0 0 0 -10 10v10a10 10 0 0 0 10 10"></path><g class="terminal">
<path d="M406 61h12"></path><path d="M446 61h12"></path><rect height="22" rx="10" ry="10" width="28" x="418" y="50"></rect><text x="432" y="65">,</text></g><path d="M458 61a10 10 0 0 0 10 -10v-10a10 10 0 0 0 -10 -10"></path></g><path d="M468 31h10"></path><path d="M478 31h10"></path><g class="terminal">
<path d="M488 31h0"></path><path d="M516 31h0"></path><rect height="22" rx="10" ry="10" width="28" x="488" y="20"></rect><text x="502" y="35">)</text></g><path d="M516 31h10"></path><path d="M526 31h10"></path><g class="non-terminal">
<path d="M536 31h0"></path><path d="M644 31h0"></path><rect height="22" width="108" x="536" y="20"></rect><a href="https://rspeele.gitbooks.io/rezoom-sql/doc/Language/SelectStmt.html#select-stmt"><text x="590" y="35">select-stmt</text><text x="590" y="35">select-stmt</text></a></g></g><path d="M644 31h20"></path><path d="M328 31a10 10 0 0 1 10 10v40a10 10 0 0 0 10 10"></path><g>
<path d="M348 91h20"></path><path d="M624 91h20"></path><g class="terminal">
<path d="M368 91h0"></path><path d="M412 91h0"></path><rect height="22" rx="10" ry="10" width="44" x="368" y="80"></rect><text x="390" y="95">ROW</text></g><path d="M412 91h10"></path><path d="M422 91h10"></path><g>
<path d="M432 91h0"></path><path d="M624 91h0"></path><path d="M432 91h10"></path><g>
<path d="M442 91h0"></path><path d="M614 91h0"></path><g class="non-terminal">
<path d="M442 91h0"></path><path d="M494 91h0"></path><rect height="22" width="52" x="442" y="80"></rect><a href="https://rspeele.gitbooks.io/rezoom-sql/doc/Language/Name.html#name"><text x="468" y="95">name</text><text x="468" y="95">name</text></a></g><path d="M494 91h10"></path><path d="M504 91h10"></path><g class="terminal">
<path d="M514 91h0"></path><path d="M542 91h0"></path><rect height="22" rx="10" ry="10" width="28" x="514" y="80"></rect><text x="528" y="95">=</text></g><path d="M542 91h10"></path><path d="M552 91h10"></path><g class="non-terminal">
<path d="M562 91h0"></path><path d="M614 91h0"></path><rect height="22" width="52" x="562" y="80"></rect><a href="https://rspeele.gitbooks.io/rezoom-sql/doc/Language/Expr.html#expr"><text x="588" y="95">expr</text><text x="588" y="95">expr</text></a></g></g><path d="M614 91h10"></path><path d="M442 91a10 10 0 0 0 -10 10v10a10 10 0 0 0 10 10"></path><g class="terminal">
<path d="M442 121h72"></path><path d="M542 121h72"></path><rect height="22" rx="10" ry="10" width="28" x="514" y="110"></rect><text x="528" y="125">,</text></g><path d="M614 121a10 10 0 0 0 10 -10v-10a10 10 0 0 0 -10 -10"></path></g></g><path d="M644 91a10 10 0 0 0 10 -10v-40a10 10 0 0 1 10 -10"></path></g><path d="M 664 31 h 20 m -10 -10 v 20 m 10 -20 v 20"></path></g></svg>