<svg class="railroad-diagram" height="297" viewBox="0 0 558 297" width="558" xmlns="http://www.w3.org/2000/svg">
<g transform="translate(.5 .5)">
<style type="text/css">
svg.railroad-diagram path {
    stroke-width: 3;
    stroke: black;
    fill: rgba(0,0,0,0);
}
svg.railroad-diagram text {
    font-family: "Consolas", "Monospace";
    font-size: 14px;
    font-weight: bold;
    text-anchor: middle;
}
svg.railroad-diagram text.diagram-text {
    font-size: 12px;
}
svg.railroad-diagram text.diagram-arrow {
    font-size: 16px;
}
svg.railroad-diagram text.label {
    text-anchor: start;
}
svg.railroad-diagram text.comment {
    font-family: "Consolas", "Monospace";
    font-size: 12px;
    font-style: italic;
}
svg.railroad-diagram g.non-terminal text {
    font-style: italic;
}
svg.railroad-diagram rect {
    stroke-width: 3;
    stroke: black;
    fill: #ddeeff;
}
svg.railroad-diagram path.diagram-text {
    stroke-width: 3;
    stroke: black;
    fill: white;
    cursor: help;
}
svg.railroad-diagram g.diagram-text:hover path.diagram-text {
    fill: #eee;
}
        </style><path d="M 20 21 v 20 m 10 -20 v 20 m -10 -10 h 20.5"></path><path d="M40 31h10"></path><g>
<path d="M50 31h0"></path><path d="M50 31h10"></path><g>
<path d="M60 31h33"></path><path d="M465 31h33"></path><g class="terminal">
<path d="M93 31h0"></path><path d="M161 31h0"></path><rect height="22" rx="10" ry="10" width="68" x="93" y="20"></rect><text x="127" y="35">SELECT</text></g><path d="M161 31h10"></path><g>
<path d="M171 31h0"></path><path d="M295 31h0"></path><path d="M171 31h20"></path><g>
<path d="M191 31h84"></path></g><path d="M275 31h20"></path><path d="M171 31a10 10 0 0 1 10 10v0a10 10 0 0 0 10 10"></path><g class="terminal">
<path d="M191 51h0"></path><path d="M275 51h0"></path><rect height="22" rx="10" ry="10" width="84" x="191" y="40"></rect><text x="233" y="55">DISTINCT</text></g><path d="M275 51a10 10 0 0 0 10 -10v0a10 10 0 0 1 10 -10"></path></g><path d="M295 31h10"></path><g>
<path d="M305 31h0"></path><path d="M465 31h0"></path><path d="M305 31h10"></path><g class="non-terminal">
<path d="M315 31h0"></path><path d="M455 31h0"></path><rect height="22" width="140" x="315" y="20"></rect><a href="https://rspeele.gitbooks.io/rezoom-sql/doc/Language/SelectStmt.html#select-property"><text x="385" y="35">select-property</text><text x="385" y="35">select-property</text></a></g><path d="M455 31h10"></path><path d="M315 31a10 10 0 0 0 -10 10v0a10 10 0 0 0 10 10"></path><g>
<path d="M315 51h140"></path></g><path d="M455 51a10 10 0 0 0 10 -10v0a10 10 0 0 0 -10 -10"></path></g></g><path d="M498 31a10 10 0 0 1 10 10v19a10 10 0 0 1 -10 10h-438a10 10 0 0 0 -10 10v0a10 10 0 0 0 10 10"></path><g>
<path d="M60 90h113"></path><path d="M385 90h113"></path><path d="M173 90h20"></path><g>
<path d="M193 90h172"></path></g><path d="M365 90h20"></path><path d="M173 90a10 10 0 0 1 10 10v0a10 10 0 0 0 10 10"></path><g>
<path d="M193 110h0"></path><path d="M365 110h0"></path><g class="terminal">
<path d="M193 110h0"></path><path d="M245 110h0"></path><rect height="22" rx="10" ry="10" width="52" x="193" y="99"></rect><text x="219" y="114">FROM</text></g><path d="M245 110h10"></path><path d="M255 110h10"></path><g class="non-terminal">
<path d="M265 110h0"></path><path d="M365 110h0"></path><rect height="22" width="100" x="265" y="99"></rect><a href="https://rspeele.gitbooks.io/rezoom-sql/doc/Language/SelectStmt.html#table-expr"><text x="315" y="114">table-expr</text><text x="315" y="114">table-expr</text></a></g></g><path d="M365 110a10 10 0 0 0 10 -10v0a10 10 0 0 1 10 -10"></path></g><path d="M498 90a10 10 0 0 1 10 10v19a10 10 0 0 1 -10 10h-438a10 10 0 0 0 -10 10v0a10 10 0 0 0 10 10"></path><g>
<path d="M60 149h133"></path><path d="M365 149h133"></path><path d="M193 149h20"></path><g>
<path d="M213 149h132"></path></g><path d="M345 149h20"></path><path d="M193 149a10 10 0 0 1 10 10v0a10 10 0 0 0 10 10"></path><g>
<path d="M213 169h0"></path><path d="M345 169h0"></path><g class="terminal">
<path d="M213 169h0"></path><path d="M273 169h0"></path><rect height="22" rx="10" ry="10" width="60" x="213" y="158"></rect><text x="243" y="173">WHERE</text></g><path d="M273 169h10"></path><path d="M283 169h10"></path><g class="non-terminal">
<path d="M293 169h0"></path><path d="M345 169h0"></path><rect height="22" width="52" x="293" y="158"></rect><a href="https://rspeele.gitbooks.io/rezoom-sql/doc/Language/Expr.html#expr"><text x="319" y="173">expr</text><text x="319" y="173">expr</text></a></g></g><path d="M345 169a10 10 0 0 0 10 -10v0a10 10 0 0 1 10 -10"></path></g><path d="M498 149a10 10 0 0 1 10 10v19a10 10 0 0 1 -10 10h-438a10 10 0 0 0 -10 10v0a10 10 0 0 0 10 10"></path><g>
<path d="M60 208h0"></path><path d="M498 208h0"></path><path d="M60 208h20"></path><g>
<path d="M80 208h398"></path></g><path d="M478 208h20"></path><path d="M60 208a10 10 0 0 1 10 10v8a10 10 0 0 0 10 10"></path><g>
<path d="M80 236h0"></path><path d="M478 236h0"></path><g class="terminal">
<path d="M80 236h0"></path><path d="M140 236h0"></path><rect height="22" rx="10" ry="10" width="60" x="80" y="225"></rect><text x="110" y="240">GROUP</text></g><path d="M140 236h10"></path><path d="M150 236h10"></path><g class="terminal">
<path d="M160 236h0"></path><path d="M196 236h0"></path><rect height="22" rx="10" ry="10" width="36" x="160" y="225"></rect><text x="178" y="240">BY</text></g><path d="M196 236h10"></path><path d="M206 236h10"></path><g>
<path d="M216 236h0"></path><path d="M288 236h0"></path><path d="M216 236h10"></path><g class="non-terminal">
<path d="M226 236h0"></path><path d="M278 236h0"></path><rect height="22" width="52" x="226" y="225"></rect><a href="https://rspeele.gitbooks.io/rezoom-sql/doc/Language/Expr.html#expr"><text x="252" y="240">expr</text><text x="252" y="240">expr</text></a></g><path d="M278 236h10"></path><path d="M226 236a10 10 0 0 0 -10 10v10a10 10 0 0 0 10 10"></path><g class="terminal">
<path d="M226 266h12"></path><path d="M266 266h12"></path><rect height="22" rx="10" ry="10" width="28" x="238" y="255"></rect><text x="252" y="270">,</text></g><path d="M278 266a10 10 0 0 0 10 -10v-10a10 10 0 0 0 -10 -10"></path></g><path d="M288 236h10"></path><g>
<path d="M298 236h0"></path><path d="M478 236h0"></path><path d="M298 236a10 10 0 0 0 10 -10v0a10 10 0 0 1 10 -10"></path><g>
<path d="M318 216h140"></path></g><path d="M458 216a10 10 0 0 1 10 10v0a10 10 0 0 0 10 10"></path><path d="M298 236h20"></path><g>
<path d="M318 236h0"></path><path d="M458 236h0"></path><g class="terminal">
<path d="M318 236h0"></path><path d="M386 236h0"></path><rect height="22" rx="10" ry="10" width="68" x="318" y="225"></rect><text x="352" y="240">HAVING</text></g><path d="M386 236h10"></path><path d="M396 236h10"></path><g class="non-terminal">
<path d="M406 236h0"></path><path d="M458 236h0"></path><rect height="22" width="52" x="406" y="225"></rect><a href="https://rspeele.gitbooks.io/rezoom-sql/doc/Language/Expr.html#expr"><text x="432" y="240">expr</text><text x="432" y="240">expr</text></a></g></g><path d="M458 236h20"></path></g></g><path d="M478 236a10 10 0 0 0 10 -10v-8a10 10 0 0 1 10 -10"></path></g><path d="M498 208h10"></path><path d="M508 208h0"></path></g><path d="M508 208h10"></path><path d="M 518 208 h 20 m -10 -10 v 20 m 10 -20 v 20"></path></g></svg>