<svg class="railroad-diagram" height="299" viewBox="0 0 512 299" width="512" xmlns="http://www.w3.org/2000/svg">
<g transform="translate(.5 .5)">
<style type="text/css">
svg.railroad-diagram path {
    stroke-width: 3;
    stroke: black;
    fill: rgba(0,0,0,0);
}
svg.railroad-diagram text {
    font-family: "Consolas", "Monospace";
    font-size: 14px;
    font-weight: bold;
    text-anchor: middle;
}
svg.railroad-diagram text.diagram-text {
    font-size: 12px;
}
svg.railroad-diagram text.diagram-arrow {
    font-size: 16px;
}
svg.railroad-diagram text.label {
    text-anchor: start;
}
svg.railroad-diagram text.comment {
    font-family: "Consolas", "Monospace";
    font-size: 12px;
    font-style: italic;
}
svg.railroad-diagram g.non-terminal text {
    font-style: italic;
}
svg.railroad-diagram rect {
    stroke-width: 3;
    stroke: black;
    fill: #ddeeff;
}
svg.railroad-diagram path.diagram-text {
    stroke-width: 3;
    stroke: black;
    fill: white;
    cursor: help;
}
svg.railroad-diagram g.diagram-text:hover path.diagram-text {
    fill: #eee;
}
        </style><path d="M 20 21 v 20 m 10 -20 v 20 m -10 -10 h 20.5"></path><path d="M40 31h10"></path><g>
<path d="M50 31h0"></path><path d="M50 31h10"></path><g class="non-terminal">
<path d="M60 31h134"></path><path d="M318 31h134"></path><rect height="22" width="124" x="194" y="20"></rect><a href="https://rspeele.gitbooks.io/rezoom-sql/doc/Language/SelectStmt.html#compound-expr"><text x="256" y="35">compound-expr</text><text x="256" y="35">compound-expr</text></a></g><path d="M452 31a10 10 0 0 1 10 10v0a10 10 0 0 1 -10 10h-392a10 10 0 0 0 -10 10v0a10 10 0 0 0 10 10"></path><g>
<path d="M60 71h1"></path><path d="M451 71h1"></path><path d="M61 71h20"></path><g>
<path d="M81 71h350"></path></g><path d="M431 71h20"></path><path d="M61 71a10 10 0 0 1 10 10v0a10 10 0 0 0 10 10"></path><g>
<path d="M81 91h0"></path><path d="M431 91h0"></path><g class="terminal">
<path d="M81 91h0"></path><path d="M141 91h0"></path><rect height="22" rx="10" ry="10" width="60" x="81" y="80"></rect><text x="111" y="95">ORDER</text></g><path d="M141 91h10"></path><path d="M151 91h10"></path><g class="terminal">
<path d="M161 91h0"></path><path d="M197 91h0"></path><rect height="22" rx="10" ry="10" width="36" x="161" y="80"></rect><text x="179" y="95">BY</text></g><path d="M197 91h10"></path><path d="M207 91h10"></path><g>
<path d="M217 91h0"></path><path d="M431 91h0"></path><path d="M217 91h10"></path><g>
<path d="M227 91h0"></path><path d="M421 91h0"></path><g class="non-terminal">
<path d="M227 91h0"></path><path d="M279 91h0"></path><rect height="22" width="52" x="227" y="80"></rect><a href="https://rspeele.gitbooks.io/rezoom-sql/doc/Language/Expr.html#expr"><text x="253" y="95">expr</text><text x="253" y="95">expr</text></a></g><path d="M279 91h10"></path><g>
<path d="M289 91h0"></path><path d="M421 91h0"></path><path d="M289 91h20"></path><g>
<path d="M309 91h92"></path></g><path d="M401 91h20"></path><path d="M289 91a10 10 0 0 1 10 10v0a10 10 0 0 0 10 10"></path><g>
<path d="M309 111h0"></path><path d="M401 111h0"></path><path d="M309 111h20"></path><g class="terminal">
<path d="M329 111h4"></path><path d="M377 111h4"></path><rect height="22" rx="10" ry="10" width="44" x="333" y="100"></rect><text x="355" y="115">ASC</text></g><path d="M381 111h20"></path><path d="M309 111a10 10 0 0 1 10 10v10a10 10 0 0 0 10 10"></path><g class="terminal">
<path d="M329 141h0"></path><path d="M381 141h0"></path><rect height="22" rx="10" ry="10" width="52" x="329" y="130"></rect><text x="355" y="145">DESC</text></g><path d="M381 141a10 10 0 0 0 10 -10v-10a10 10 0 0 1 10 -10"></path></g><path d="M401 111a10 10 0 0 0 10 -10v0a10 10 0 0 1 10 -10"></path></g></g><path d="M421 91h10"></path><path d="M227 91a10 10 0 0 0 -10 10v60a10 10 0 0 0 10 10"></path><g class="terminal">
<path d="M227 171h83"></path><path d="M338 171h83"></path><rect height="22" rx="10" ry="10" width="28" x="310" y="160"></rect><text x="324" y="175">,</text></g><path d="M421 171a10 10 0 0 0 10 -10v-60a10 10 0 0 0 -10 -10"></path></g></g><path d="M431 91a10 10 0 0 0 10 -10v0a10 10 0 0 1 10 -10"></path></g><path d="M452 71a10 10 0 0 1 10 10v99a10 10 0 0 1 -10 10h-392a10 10 0 0 0 -10 10v0a10 10 0 0 0 10 10"></path><g>
<path d="M60 210h0"></path><path d="M452 210h0"></path><path d="M60 210h20"></path><g>
<path d="M80 210h352"></path></g><path d="M432 210h20"></path><path d="M60 210a10 10 0 0 1 10 10v8a10 10 0 0 0 10 10"></path><g>
<path d="M80 238h0"></path><path d="M432 238h0"></path><g class="terminal">
<path d="M80 238h0"></path><path d="M140 238h0"></path><rect height="22" rx="10" ry="10" width="60" x="80" y="227"></rect><text x="110" y="242">LIMIT</text></g><path d="M140 238h10"></path><path d="M150 238h10"></path><g class="non-terminal">
<path d="M160 238h0"></path><path d="M212 238h0"></path><rect height="22" width="52" x="160" y="227"></rect><a href="https://rspeele.gitbooks.io/rezoom-sql/doc/Language/Expr.html#expr"><text x="186" y="242">expr</text><text x="186" y="242">expr</text></a></g><path d="M212 238h10"></path><g>
<path d="M222 238h0"></path><path d="M432 238h0"></path><path d="M222 238a10 10 0 0 0 10 -10v0a10 10 0 0 1 10 -10"></path><g>
<path d="M242 218h170"></path></g><path d="M412 218a10 10 0 0 1 10 10v0a10 10 0 0 0 10 10"></path><path d="M222 238h20"></path><g>
<path d="M242 238h0"></path><path d="M412 238h0"></path><g>
<path d="M242 238h0"></path><path d="M350 238h0"></path><path d="M242 238h20"></path><g class="terminal">
<path d="M262 238h0"></path><path d="M330 238h0"></path><rect height="22" rx="10" ry="10" width="68" x="262" y="227"></rect><text x="296" y="242">OFFSET</text></g><path d="M330 238h20"></path><path d="M242 238a10 10 0 0 1 10 10v10a10 10 0 0 0 10 10"></path><g class="terminal">
<path d="M262 268h20"></path><path d="M310 268h20"></path><rect height="22" rx="10" ry="10" width="28" x="282" y="257"></rect><text x="296" y="272">,</text></g><path d="M330 268a10 10 0 0 0 10 -10v-10a10 10 0 0 1 10 -10"></path></g><path d="M350 238h10"></path><g class="non-terminal">
<path d="M360 238h0"></path><path d="M412 238h0"></path><rect height="22" width="52" x="360" y="227"></rect><a href="https://rspeele.gitbooks.io/rezoom-sql/doc/Language/Expr.html#expr"><text x="386" y="242">expr</text><text x="386" y="242">expr</text></a></g></g><path d="M412 238h20"></path></g></g><path d="M432 238a10 10 0 0 0 10 -10v-8a10 10 0 0 1 10 -10"></path></g><path d="M452 210h10"></path><path d="M462 210h0"></path></g><path d="M462 210h10"></path><path d="M 472 210 h 20 m -10 -10 v 20 m 10 -20 v 20"></path></g></svg>