<svg class="railroad-diagram" height="258" viewBox="0 0 918 258" width="918" xmlns="http://www.w3.org/2000/svg" xmlns:xlink="http://www.w3.org/1999/xlink">
<g transform="translate(.5 .5)">
<style type="text/css">
svg.railroad-diagram path {
    stroke-width: 3;
    stroke: black;
    fill: rgba(0,0,0,0);
}
svg.railroad-diagram text {
    font-family: "Consolas", "Monospace";
    font-size: 14px;
    font-weight: bold;
    text-anchor: middle;
}
svg.railroad-diagram text.diagram-text {
    font-size: 12px;
}
svg.railroad-diagram text.diagram-arrow {
    font-size: 16px;
}
svg.railroad-diagram text.label {
    text-anchor: start;
}
svg.railroad-diagram text.comment {
    font-family: "Consolas", "Monospace";
    font-size: 12px;
    font-style: italic;
}
svg.railroad-diagram g.non-terminal text {
    font-style: italic;
}
svg.railroad-diagram rect {
    stroke-width: 3;
    stroke: black;
    fill: #ddeeff;
}
svg.railroad-diagram path.diagram-text {
    stroke-width: 3;
    stroke: black;
    fill: white;
    cursor: help;
}
svg.railroad-diagram g.diagram-text:hover path.diagram-text {
    fill: #eee;
}
        </style><path d="M 20 30 v 20 m 10 -20 v 20 m -10 -10 h 20.5"></path><g>
<path d="M40 40h0"></path><path d="M878 40h0"></path><path d="M40 40h20"></path><g>
<path d="M60 40h188"></path><path d="M670 40h188"></path><g>
<path d="M248 40h0"></path><path d="M492 40h0"></path><path d="M248 40h20"></path><g class="non-terminal">
<path d="M268 40h48"></path><path d="M424 40h48"></path><rect height="22" width="108" x="316" y="29"></rect><text x="370" y="44">object-name</text></g><path d="M472 40h20"></path><path d="M248 40a10 10 0 0 1 10 10v10a10 10 0 0 0 10 10"></path><g>
<path d="M268 70h0"></path><path d="M472 70h0"></path><g class="terminal">
<path d="M268 70h0"></path><path d="M296 70h0"></path><rect height="22" rx="10" ry="10" width="28" x="268" y="59"></rect><text x="282" y="74">(</text></g><path d="M296 70h10"></path><path d="M306 70h10"></path><g class="non-terminal">
<path d="M316 70h0"></path><path d="M424 70h0"></path><rect height="22" width="108" x="316" y="59"></rect><text x="370" y="74">select-stmt</text></g><path d="M424 70h10"></path><path d="M434 70h10"></path><g class="terminal">
<path d="M444 70h0"></path><path d="M472 70h0"></path><rect height="22" rx="10" ry="10" width="28" x="444" y="59"></rect><text x="458" y="74">)</text></g></g><path d="M472 70a10 10 0 0 0 10 -10v-10a10 10 0 0 1 10 -10"></path></g><g>
<path d="M492 40h0"></path><path d="M670 40h0"></path><path d="M492 40a10 10 0 0 0 10 -10v0a10 10 0 0 1 10 -10"></path><g>
<path d="M512 20h138"></path></g><path d="M650 20a10 10 0 0 1 10 10v0a10 10 0 0 0 10 10"></path><path d="M492 40h20"></path><g>
<path d="M512 40h0"></path><path d="M650 40h0"></path><g>
<path d="M512 40h0"></path><path d="M588 40h0"></path><path d="M512 40h20"></path><g>
<path d="M532 40h36"></path></g><path d="M568 40h20"></path><path d="M512 40a10 10 0 0 1 10 10v0a10 10 0 0 0 10 10"></path><g class="terminal">
<path d="M532 60h0"></path><path d="M568 60h0"></path><rect height="22" rx="10" ry="10" width="36" x="532" y="49"></rect><text x="550" y="64">AS</text></g><path d="M568 60a10 10 0 0 0 10 -10v0a10 10 0 0 1 10 -10"></path></g><path d="M588 40h10"></path><g class="non-terminal">
<path d="M598 40h0"></path><path d="M650 40h0"></path><rect height="22" width="52" x="598" y="29"></rect><text x="624" y="44">name</text></g></g><path d="M650 40h20"></path></g></g><path d="M858 40h20"></path><path d="M40 40a10 10 0 0 1 10 10v49a10 10 0 0 0 10 10"></path><g>
<path d="M60 109h0"></path><path d="M858 109h0"></path><g class="non-terminal">
<path d="M60 109h0"></path><path d="M160 109h0"></path><rect height="22" width="100" x="60" y="98"></rect><text x="110" y="113">table-expr</text></g><path d="M160 109h10"></path><g>
<path d="M170 109h0"></path><path d="M590 109h0"></path><path d="M170 109h20"></path><g>
<path d="M190 109h0"></path><path d="M570 109h0"></path><g>
<path d="M190 109h0"></path><path d="M306 109h0"></path><path d="M190 109h20"></path><g>
<path d="M210 109h76"></path></g><path d="M286 109h20"></path><path d="M190 109a10 10 0 0 1 10 10v0a10 10 0 0 0 10 10"></path><g class="terminal">
<path d="M210 129h0"></path><path d="M286 129h0"></path><rect height="22" rx="10" ry="10" width="76" x="210" y="118"></rect><text x="248" y="133">NATURAL</text></g><path d="M286 129a10 10 0 0 0 10 -10v0a10 10 0 0 1 10 -10"></path></g><g>
<path d="M306 109h0"></path><path d="M508 109h0"></path><path d="M306 109h20"></path><g>
<path d="M326 109h162"></path></g><path d="M488 109h20"></path><path d="M306 109a10 10 0 0 1 10 10v8a10 10 0 0 0 10 10"></path><g>
<path d="M326 137h0"></path><path d="M488 137h0"></path><g>
<path d="M326 137h0"></path><path d="M418 137h0"></path><path d="M326 137a10 10 0 0 0 10 -10v0a10 10 0 0 1 10 -10"></path><g>
<path d="M346 117h52"></path></g><path d="M398 117a10 10 0 0 1 10 10v0a10 10 0 0 0 10 10"></path><path d="M326 137h20"></path><g class="terminal">
<path d="M346 137h0"></path><path d="M398 137h0"></path><rect height="22" rx="10" ry="10" width="52" x="346" y="126"></rect><text x="372" y="141">LEFT</text></g><path d="M398 137h20"></path></g><path d="M418 137h10"></path><g class="terminal">
<path d="M428 137h0"></path><path d="M488 137h0"></path><rect height="22" rx="10" ry="10" width="60" x="428" y="126"></rect><text x="458" y="141">OUTER</text></g></g><path d="M488 137a10 10 0 0 0 10 -10v-8a10 10 0 0 1 10 -10"></path><path d="M306 109a10 10 0 0 1 10 10v38a10 10 0 0 0 10 10"></path><g class="terminal">
<path d="M326 167h51"></path><path d="M437 167h51"></path><rect height="22" rx="10" ry="10" width="60" x="377" y="156"></rect><text x="407" y="171">INNER</text></g><path d="M488 167a10 10 0 0 0 10 -10v-38a10 10 0 0 1 10 -10"></path><path d="M306 109a10 10 0 0 1 10 10v68a10 10 0 0 0 10 10"></path><g class="terminal">
<path d="M326 197h51"></path><path d="M437 197h51"></path><rect height="22" rx="10" ry="10" width="60" x="377" y="186"></rect><text x="407" y="201">CROSS</text></g><path d="M488 197a10 10 0 0 0 10 -10v-68a10 10 0 0 1 10 -10"></path></g><path d="M508 109h10"></path><g class="terminal">
<path d="M518 109h0"></path><path d="M570 109h0"></path><rect height="22" rx="10" ry="10" width="52" x="518" y="98"></rect><text x="544" y="113">JOIN</text></g></g><path d="M570 109h20"></path><path d="M170 109a10 10 0 0 1 10 10v98a10 10 0 0 0 10 10"></path><g class="terminal">
<path d="M190 227h176"></path><path d="M394 227h176"></path><rect height="22" rx="10" ry="10" width="28" x="366" y="216"></rect><text x="380" y="231">,</text></g><path d="M570 227a10 10 0 0 0 10 -10v-98a10 10 0 0 1 10 -10"></path></g><path d="M590 109h10"></path><g class="non-terminal">
<path d="M600 109h0"></path><path d="M700 109h0"></path><rect height="22" width="100" x="600" y="98"></rect><text x="650" y="113">table-expr</text></g><path d="M700 109h10"></path><g>
<path d="M710 109h0"></path><path d="M858 109h0"></path><path d="M710 109a10 10 0 0 0 10 -10v0a10 10 0 0 1 10 -10"></path><g>
<path d="M730 89h108"></path></g><path d="M838 89a10 10 0 0 1 10 10v0a10 10 0 0 0 10 10"></path><path d="M710 109h20"></path><g>
<path d="M730 109h0"></path><path d="M838 109h0"></path><g class="terminal">
<path d="M730 109h0"></path><path d="M766 109h0"></path><rect height="22" rx="10" ry="10" width="36" x="730" y="98"></rect><text x="748" y="113">ON</text></g><path d="M766 109h10"></path><path d="M776 109h10"></path><g class="non-terminal">
<path d="M786 109h0"></path><path d="M838 109h0"></path><rect height="22" width="52" x="786" y="98"></rect><text x="812" y="113">expr</text></g></g><path d="M838 109h20"></path></g></g><path d="M858 109a10 10 0 0 0 10 -10v-49a10 10 0 0 1 10 -10"></path></g><path d="M 878 40 h 20 m -10 -10 v 20 m 10 -20 v 20"></path></g></svg>