<?xml version="1.0" encoding="UTF-8" standalone="no"?>
<!DOCTYPE svg PUBLIC "-//W3C//DTD SVG 1.1//EN"
 "http://www.w3.org/Graphics/SVG/1.1/DTD/svg11.dtd">
<!-- Generated by graphviz version 2.38.0 (20140413.2041)
 -->
<!-- Title: Type Hierarchy Pages: 1 -->
<svg width="654pt" height="476pt"
 viewBox="0.00 0.00 654.00 476.00" xmlns="http://www.w3.org/2000/svg" xmlns:xlink="http://www.w3.org/1999/xlink">
<g id="graph0" class="graph" transform="scale(1 1) rotate(0) translate(4 472)">
<title>Type Hierarchy</title>
<polygon fill="white" stroke="none" points="-4,4 -4,-472 650,-472 650,4 -4,4"/>
<!-- integral -->
<g id="node1" class="node"><title>integral</title>
<polygon fill="none" stroke="gray" points="646,-252 554,-252 554,-216 646,-216 646,-252"/>
<text text-anchor="middle" x="600" y="-230.3" font-family="Consolas" font-size="14.00">&lt;integral&gt;</text>
</g>
<!-- numeric -->
<g id="node3" class="node"><title>numeric</title>
<polygon fill="none" stroke="gray" points="529,-324 445,-324 445,-288 529,-288 529,-324"/>
<text text-anchor="middle" x="487" y="-302.3" font-family="Consolas" font-size="14.00">&lt;numeric&gt;</text>
</g>
<!-- integral&#45;&gt;numeric -->
<g id="edge16" class="edge"><title>integral&#45;&gt;numeric</title>
<path fill="none" stroke="black" d="M572.357,-252.124C557.582,-261.276 539.209,-272.658 523.297,-282.515"/>
<polygon fill="black" stroke="black" points="521.407,-279.569 514.749,-287.81 525.093,-285.519 521.407,-279.569"/>
</g>
<!-- fractional -->
<g id="node2" class="node"><title>fractional</title>
<polygon fill="none" stroke="gray" points="535.5,-252 428.5,-252 428.5,-216 535.5,-216 535.5,-252"/>
<text text-anchor="middle" x="482" y="-230.3" font-family="Consolas" font-size="14.00">&lt;fractional&gt;</text>
</g>
<!-- fractional&#45;&gt;numeric -->
<g id="edge15" class="edge"><title>fractional&#45;&gt;numeric</title>
<path fill="none" stroke="black" d="M483.236,-252.303C483.787,-260.017 484.449,-269.288 485.063,-277.888"/>
<polygon fill="black" stroke="black" points="481.575,-278.17 485.778,-287.896 488.557,-277.672 481.575,-278.17"/>
</g>
<!-- scalar -->
<g id="node6" class="node"><title>scalar</title>
<polygon fill="none" stroke="gray" points="366.5,-396 289.5,-396 289.5,-360 366.5,-360 366.5,-396"/>
<text text-anchor="middle" x="328" y="-374.3" font-family="Consolas" font-size="14.00">&lt;scalar&gt;</text>
</g>
<!-- numeric&#45;&gt;scalar -->
<g id="edge17" class="edge"><title>numeric&#45;&gt;scalar</title>
<path fill="none" stroke="black" d="M448.104,-324.124C426.368,-333.693 399.096,-345.7 376.036,-355.852"/>
<polygon fill="black" stroke="black" points="374.511,-352.699 366.769,-359.932 377.332,-359.106 374.511,-352.699"/>
</g>
<!-- stringish -->
<g id="node4" class="node"><title>stringish</title>
<polygon fill="none" stroke="gray" points="150.5,-324 51.5,-324 51.5,-288 150.5,-288 150.5,-324"/>
<text text-anchor="middle" x="101" y="-302.3" font-family="Consolas" font-size="14.00">&lt;stringish&gt;</text>
</g>
<!-- stringish&#45;&gt;scalar -->
<g id="edge14" class="edge"><title>stringish&#45;&gt;scalar</title>
<path fill="none" stroke="black" d="M150.536,-322.275C188.856,-334.092 241.621,-350.363 279.642,-362.088"/>
<polygon fill="black" stroke="black" points="278.873,-365.513 289.46,-365.116 280.936,-358.824 278.873,-365.513"/>
</g>
<!-- datetimeish -->
<g id="node5" class="node"><title>datetimeish</title>
<polygon fill="none" stroke="gray" points="283,-324 169,-324 169,-288 283,-288 283,-324"/>
<text text-anchor="middle" x="226" y="-302.3" font-family="Consolas" font-size="14.00">&lt;datetimeish&gt;</text>
</g>
<!-- datetimeish&#45;&gt;scalar -->
<g id="edge8" class="edge"><title>datetimeish&#45;&gt;scalar</title>
<path fill="none" stroke="black" d="M250.952,-324.124C264.042,-333.107 280.26,-344.237 294.436,-353.966"/>
<polygon fill="black" stroke="black" points="292.726,-357.038 302.952,-359.81 296.687,-351.266 292.726,-357.038"/>
</g>
<!-- any -->
<g id="node7" class="node"><title>any</title>
<polygon fill="none" stroke="gray" points="355,-468 301,-468 301,-432 355,-432 355,-468"/>
<text text-anchor="middle" x="328" y="-446.3" font-family="Consolas" font-size="14.00">&lt;any&gt;</text>
</g>
<!-- scalar&#45;&gt;any -->
<g id="edge18" class="edge"><title>scalar&#45;&gt;any</title>
<path fill="none" stroke="black" d="M328,-396.303C328,-404.017 328,-413.288 328,-421.888"/>
<polygon fill="black" stroke="black" points="324.5,-421.896 328,-431.896 331.5,-421.896 324.5,-421.896"/>
</g>
<!-- int16 -->
<g id="node8" class="node"><title>int16</title>
<polygon fill="none" stroke="none" points="627,-180 573,-180 573,-144 627,-144 627,-180"/>
<text text-anchor="middle" x="600" y="-158.3" font-family="Consolas" font-size="14.00">int16</text>
</g>
<!-- int16&#45;&gt;integral -->
<g id="edge1" class="edge"><title>int16&#45;&gt;integral</title>
<path fill="none" stroke="black" d="M600,-180.303C600,-188.017 600,-197.288 600,-205.888"/>
<polygon fill="black" stroke="black" points="596.5,-205.896 600,-215.896 603.5,-205.896 596.5,-205.896"/>
</g>
<!-- int32 -->
<g id="node9" class="node"><title>int32</title>
<polygon fill="none" stroke="none" points="627,-108 573,-108 573,-72 627,-72 627,-108"/>
<text text-anchor="middle" x="600" y="-86.3" font-family="Consolas" font-size="14.00">int32</text>
</g>
<!-- int32&#45;&gt;int16 -->
<g id="edge2" class="edge"><title>int32&#45;&gt;int16</title>
<path fill="none" stroke="black" d="M600,-108.303C600,-116.017 600,-125.288 600,-133.888"/>
<polygon fill="black" stroke="black" points="596.5,-133.896 600,-143.896 603.5,-133.896 596.5,-133.896"/>
</g>
<!-- int64 -->
<g id="node10" class="node"><title>int64</title>
<polygon fill="none" stroke="none" points="627,-36 573,-36 573,-0 627,-0 627,-36"/>
<text text-anchor="middle" x="600" y="-14.3" font-family="Consolas" font-size="14.00">int64</text>
</g>
<!-- int64&#45;&gt;int32 -->
<g id="edge3" class="edge"><title>int64&#45;&gt;int32</title>
<path fill="none" stroke="black" d="M600,-36.3034C600,-44.0173 600,-53.2875 600,-61.8876"/>
<polygon fill="black" stroke="black" points="596.5,-61.8956 600,-71.8957 603.5,-61.8957 596.5,-61.8956"/>
</g>
<!-- bool -->
<g id="node11" class="node"><title>bool</title>
<polygon fill="none" stroke="none" points="355,-324 301,-324 301,-288 355,-288 355,-324"/>
<text text-anchor="middle" x="328" y="-302.3" font-family="Consolas" font-size="14.00">bool</text>
</g>
<!-- bool&#45;&gt;scalar -->
<g id="edge4" class="edge"><title>bool&#45;&gt;scalar</title>
<path fill="none" stroke="black" d="M328,-324.303C328,-332.017 328,-341.288 328,-349.888"/>
<polygon fill="black" stroke="black" points="324.5,-349.896 328,-359.896 331.5,-349.896 324.5,-349.896"/>
</g>
<!-- guid -->
<g id="node12" class="node"><title>guid</title>
<polygon fill="none" stroke="none" points="427,-324 373,-324 373,-288 427,-288 427,-324"/>
<text text-anchor="middle" x="400" y="-302.3" font-family="Consolas" font-size="14.00">guid</text>
</g>
<!-- guid&#45;&gt;scalar -->
<g id="edge5" class="edge"><title>guid&#45;&gt;scalar</title>
<path fill="none" stroke="black" d="M382.202,-324.303C373.396,-332.865 362.618,-343.344 352.999,-352.696"/>
<polygon fill="black" stroke="black" points="350.323,-350.415 345.593,-359.896 355.203,-355.434 350.323,-350.415"/>
</g>
<!-- datetime -->
<g id="node13" class="node"><title>datetime</title>
<polygon fill="none" stroke="none" points="255.5,-252 178.5,-252 178.5,-216 255.5,-216 255.5,-252"/>
<text text-anchor="middle" x="217" y="-230.3" font-family="Consolas" font-size="14.00">datetime</text>
</g>
<!-- datetime&#45;&gt;datetimeish -->
<g id="edge6" class="edge"><title>datetime&#45;&gt;datetimeish</title>
<path fill="none" stroke="black" d="M219.225,-252.303C220.217,-260.017 221.408,-269.288 222.514,-277.888"/>
<polygon fill="black" stroke="black" points="219.054,-278.424 223.801,-287.896 225.997,-277.531 219.054,-278.424"/>
</g>
<!-- datetimeoffset -->
<g id="node14" class="node"><title>datetimeoffset</title>
<polygon fill="none" stroke="none" points="396,-252 274,-252 274,-216 396,-216 396,-252"/>
<text text-anchor="middle" x="335" y="-230.3" font-family="Consolas" font-size="14.00">datetimeoffset</text>
</g>
<!-- datetimeoffset&#45;&gt;datetimeish -->
<g id="edge7" class="edge"><title>datetimeoffset&#45;&gt;datetimeish</title>
<path fill="none" stroke="black" d="M308.336,-252.124C294.216,-261.192 276.689,-272.448 261.439,-282.241"/>
<polygon fill="black" stroke="black" points="259.29,-279.462 252.767,-287.81 263.073,-285.352 259.29,-279.462"/>
</g>
<!-- float32 -->
<g id="node15" class="node"><title>float32</title>
<polygon fill="none" stroke="none" points="448.5,-180 379.5,-180 379.5,-144 448.5,-144 448.5,-180"/>
<text text-anchor="middle" x="414" y="-158.3" font-family="Consolas" font-size="14.00">float32</text>
</g>
<!-- float32&#45;&gt;fractional -->
<g id="edge9" class="edge"><title>float32&#45;&gt;fractional</title>
<path fill="none" stroke="black" d="M430.809,-180.303C439.126,-188.865 449.305,-199.344 458.39,-208.696"/>
<polygon fill="black" stroke="black" points="455.906,-211.162 465.384,-215.896 460.927,-206.284 455.906,-211.162"/>
</g>
<!-- float64 -->
<g id="node16" class="node"><title>float64</title>
<polygon fill="none" stroke="none" points="448.5,-108 379.5,-108 379.5,-72 448.5,-72 448.5,-108"/>
<text text-anchor="middle" x="414" y="-86.3" font-family="Consolas" font-size="14.00">float64</text>
</g>
<!-- float64&#45;&gt;float32 -->
<g id="edge10" class="edge"><title>float64&#45;&gt;float32</title>
<path fill="none" stroke="black" d="M414,-108.303C414,-116.017 414,-125.288 414,-133.888"/>
<polygon fill="black" stroke="black" points="410.5,-133.896 414,-143.896 417.5,-133.896 410.5,-133.896"/>
</g>
<!-- decimal -->
<g id="node17" class="node"><title>decimal</title>
<polygon fill="none" stroke="none" points="535.5,-180 466.5,-180 466.5,-144 535.5,-144 535.5,-180"/>
<text text-anchor="middle" x="501" y="-158.3" font-family="Consolas" font-size="14.00">decimal</text>
</g>
<!-- decimal&#45;&gt;fractional -->
<g id="edge11" class="edge"><title>decimal&#45;&gt;fractional</title>
<path fill="none" stroke="black" d="M496.303,-180.303C494.187,-188.102 491.638,-197.491 489.282,-206.171"/>
<polygon fill="black" stroke="black" points="485.884,-205.328 486.643,-215.896 492.64,-207.162 485.884,-205.328"/>
</g>
<!-- binary -->
<g id="node18" class="node"><title>binary</title>
<polygon fill="none" stroke="none" points="62,-252 0,-252 0,-216 62,-216 62,-252"/>
<text text-anchor="middle" x="31" y="-230.3" font-family="Consolas" font-size="14.00">binary</text>
</g>
<!-- binary&#45;&gt;stringish -->
<g id="edge12" class="edge"><title>binary&#45;&gt;stringish</title>
<path fill="none" stroke="black" d="M48.3034,-252.303C56.865,-260.865 67.3438,-271.344 76.6955,-280.696"/>
<polygon fill="black" stroke="black" points="74.3497,-283.299 83.8957,-287.896 79.2995,-278.35 74.3497,-283.299"/>
</g>
<!-- string -->
<g id="node19" class="node"><title>string</title>
<polygon fill="none" stroke="none" points="142,-252 80,-252 80,-216 142,-216 142,-252"/>
<text text-anchor="middle" x="111" y="-230.3" font-family="Consolas" font-size="14.00">string</text>
</g>
<!-- string&#45;&gt;stringish -->
<g id="edge13" class="edge"><title>string&#45;&gt;stringish</title>
<path fill="none" stroke="black" d="M108.528,-252.303C107.426,-260.017 106.102,-269.288 104.873,-277.888"/>
<polygon fill="black" stroke="black" points="101.393,-277.501 103.443,-287.896 108.323,-278.491 101.393,-277.501"/>
</g>
</g>
</svg>
