<?xml version="1.0" encoding="UTF-8" standalone="no"?>
<!DOCTYPE svg PUBLIC "-//W3C//DTD SVG 1.1//EN"
 "http://www.w3.org/Graphics/SVG/1.1/DTD/svg11.dtd">
<!-- Generated by graphviz version 2.38.0 (20140413.2041)
 -->
<!-- Title: Type Hierarchy Pages: 1 -->
<svg width="425pt" height="548pt"
 viewBox="0.00 0.00 425.00 548.00" xmlns="http://www.w3.org/2000/svg" xmlns:xlink="http://www.w3.org/1999/xlink">
<g id="graph0" class="graph" transform="scale(1 1) rotate(0) translate(4 544)">
<title>Type Hierarchy</title>
<polygon fill="white" stroke="none" points="-4,4 -4,-544 421,-544 421,4 -4,4"/>
<!-- integral -->
<g id="node1" class="node"><title>integral</title>
<polygon fill="none" stroke="gray" points="417,-324 325,-324 325,-288 417,-288 417,-324"/>
<text text-anchor="middle" x="371" y="-302.3" font-family="Consolas" font-size="14.00">&lt;integral&gt;</text>
</g>
<!-- numeric -->
<g id="node3" class="node"><title>numeric</title>
<polygon fill="none" stroke="gray" points="315,-396 231,-396 231,-360 315,-360 315,-396"/>
<text text-anchor="middle" x="273" y="-374.3" font-family="Consolas" font-size="14.00">&lt;numeric&gt;</text>
</g>
<!-- integral&#45;&gt;numeric -->
<g id="edge13" class="edge"><title>integral&#45;&gt;numeric</title>
<path fill="none" stroke="black" d="M347.027,-324.124C334.45,-333.107 318.868,-344.237 305.248,-353.966"/>
<polygon fill="black" stroke="black" points="303.169,-351.15 297.066,-359.81 307.237,-356.846 303.169,-351.15"/>
</g>
<!-- fractional -->
<g id="node2" class="node"><title>fractional</title>
<polygon fill="none" stroke="gray" points="306.5,-324 199.5,-324 199.5,-288 306.5,-288 306.5,-324"/>
<text text-anchor="middle" x="253" y="-302.3" font-family="Consolas" font-size="14.00">&lt;fractional&gt;</text>
</g>
<!-- fractional&#45;&gt;numeric -->
<g id="edge12" class="edge"><title>fractional&#45;&gt;numeric</title>
<path fill="none" stroke="black" d="M257.944,-324.303C260.172,-332.102 262.855,-341.491 265.335,-350.171"/>
<polygon fill="black" stroke="black" points="262,-351.242 268.113,-359.896 268.731,-349.319 262,-351.242"/>
</g>
<!-- scalar -->
<g id="node5" class="node"><title>scalar</title>
<polygon fill="none" stroke="gray" points="224.5,-468 147.5,-468 147.5,-432 224.5,-432 224.5,-468"/>
<text text-anchor="middle" x="186" y="-446.3" font-family="Consolas" font-size="14.00">&lt;scalar&gt;</text>
</g>
<!-- numeric&#45;&gt;scalar -->
<g id="edge14" class="edge"><title>numeric&#45;&gt;scalar</title>
<path fill="none" stroke="black" d="M251.494,-396.303C240.537,-405.119 227.054,-415.968 215.175,-425.526"/>
<polygon fill="black" stroke="black" points="212.855,-422.9 207.258,-431.896 217.244,-428.354 212.855,-422.9"/>
</g>
<!-- stringish -->
<g id="node4" class="node"><title>stringish</title>
<polygon fill="none" stroke="gray" points="140.5,-396 41.5,-396 41.5,-360 140.5,-360 140.5,-396"/>
<text text-anchor="middle" x="91" y="-374.3" font-family="Consolas" font-size="14.00">&lt;stringish&gt;</text>
</g>
<!-- stringish&#45;&gt;scalar -->
<g id="edge11" class="edge"><title>stringish&#45;&gt;scalar</title>
<path fill="none" stroke="black" d="M114.483,-396.303C126.563,-405.204 141.454,-416.177 154.516,-425.801"/>
<polygon fill="black" stroke="black" points="152.66,-428.781 162.787,-431.896 156.813,-423.146 152.66,-428.781"/>
</g>
<!-- any -->
<g id="node6" class="node"><title>any</title>
<polygon fill="none" stroke="gray" points="213,-540 159,-540 159,-504 213,-504 213,-540"/>
<text text-anchor="middle" x="186" y="-518.3" font-family="Consolas" font-size="14.00">&lt;any&gt;</text>
</g>
<!-- scalar&#45;&gt;any -->
<g id="edge15" class="edge"><title>scalar&#45;&gt;any</title>
<path fill="none" stroke="black" d="M186,-468.303C186,-476.017 186,-485.288 186,-493.888"/>
<polygon fill="black" stroke="black" points="182.5,-493.896 186,-503.896 189.5,-493.896 182.5,-493.896"/>
</g>
<!-- int8 -->
<g id="node7" class="node"><title>int8</title>
<polygon fill="none" stroke="none" points="398,-252 344,-252 344,-216 398,-216 398,-252"/>
<text text-anchor="middle" x="371" y="-230.3" font-family="Consolas" font-size="14.00">int8</text>
</g>
<!-- int8&#45;&gt;integral -->
<g id="edge1" class="edge"><title>int8&#45;&gt;integral</title>
<path fill="none" stroke="black" d="M371,-252.303C371,-260.017 371,-269.288 371,-277.888"/>
<polygon fill="black" stroke="black" points="367.5,-277.896 371,-287.896 374.5,-277.896 367.5,-277.896"/>
</g>
<!-- int16 -->
<g id="node8" class="node"><title>int16</title>
<polygon fill="none" stroke="none" points="398,-180 344,-180 344,-144 398,-144 398,-180"/>
<text text-anchor="middle" x="371" y="-158.3" font-family="Consolas" font-size="14.00">int16</text>
</g>
<!-- int16&#45;&gt;int8 -->
<g id="edge2" class="edge"><title>int16&#45;&gt;int8</title>
<path fill="none" stroke="black" d="M371,-180.303C371,-188.017 371,-197.288 371,-205.888"/>
<polygon fill="black" stroke="black" points="367.5,-205.896 371,-215.896 374.5,-205.896 367.5,-205.896"/>
</g>
<!-- int32 -->
<g id="node9" class="node"><title>int32</title>
<polygon fill="none" stroke="none" points="398,-108 344,-108 344,-72 398,-72 398,-108"/>
<text text-anchor="middle" x="371" y="-86.3" font-family="Consolas" font-size="14.00">int32</text>
</g>
<!-- int32&#45;&gt;int16 -->
<g id="edge3" class="edge"><title>int32&#45;&gt;int16</title>
<path fill="none" stroke="black" d="M371,-108.303C371,-116.017 371,-125.288 371,-133.888"/>
<polygon fill="black" stroke="black" points="367.5,-133.896 371,-143.896 374.5,-133.896 367.5,-133.896"/>
</g>
<!-- int64 -->
<g id="node10" class="node"><title>int64</title>
<polygon fill="none" stroke="none" points="398,-36 344,-36 344,-0 398,-0 398,-36"/>
<text text-anchor="middle" x="371" y="-14.3" font-family="Consolas" font-size="14.00">int64</text>
</g>
<!-- int64&#45;&gt;int32 -->
<g id="edge4" class="edge"><title>int64&#45;&gt;int32</title>
<path fill="none" stroke="black" d="M371,-36.3034C371,-44.0173 371,-53.2875 371,-61.8876"/>
<polygon fill="black" stroke="black" points="367.5,-61.8956 371,-71.8957 374.5,-61.8957 367.5,-61.8956"/>
</g>
<!-- bool -->
<g id="node11" class="node"><title>bool</title>
<polygon fill="none" stroke="none" points="213,-396 159,-396 159,-360 213,-360 213,-396"/>
<text text-anchor="middle" x="186" y="-374.3" font-family="Consolas" font-size="14.00">bool</text>
</g>
<!-- bool&#45;&gt;scalar -->
<g id="edge5" class="edge"><title>bool&#45;&gt;scalar</title>
<path fill="none" stroke="black" d="M186,-396.303C186,-404.017 186,-413.288 186,-421.888"/>
<polygon fill="black" stroke="black" points="182.5,-421.896 186,-431.896 189.5,-421.896 182.5,-421.896"/>
</g>
<!-- float32 -->
<g id="node12" class="node"><title>float32</title>
<polygon fill="none" stroke="none" points="219.5,-252 150.5,-252 150.5,-216 219.5,-216 219.5,-252"/>
<text text-anchor="middle" x="185" y="-230.3" font-family="Consolas" font-size="14.00">float32</text>
</g>
<!-- float32&#45;&gt;fractional -->
<g id="edge6" class="edge"><title>float32&#45;&gt;fractional</title>
<path fill="none" stroke="black" d="M201.809,-252.303C210.126,-260.865 220.305,-271.344 229.39,-280.696"/>
<polygon fill="black" stroke="black" points="226.906,-283.162 236.384,-287.896 231.927,-278.284 226.906,-283.162"/>
</g>
<!-- float64 -->
<g id="node13" class="node"><title>float64</title>
<polygon fill="none" stroke="none" points="219.5,-180 150.5,-180 150.5,-144 219.5,-144 219.5,-180"/>
<text text-anchor="middle" x="185" y="-158.3" font-family="Consolas" font-size="14.00">float64</text>
</g>
<!-- float64&#45;&gt;float32 -->
<g id="edge7" class="edge"><title>float64&#45;&gt;float32</title>
<path fill="none" stroke="black" d="M185,-180.303C185,-188.017 185,-197.288 185,-205.888"/>
<polygon fill="black" stroke="black" points="181.5,-205.896 185,-215.896 188.5,-205.896 181.5,-205.896"/>
</g>
<!-- decimal -->
<g id="node14" class="node"><title>decimal</title>
<polygon fill="none" stroke="none" points="306.5,-252 237.5,-252 237.5,-216 306.5,-216 306.5,-252"/>
<text text-anchor="middle" x="272" y="-230.3" font-family="Consolas" font-size="14.00">decimal</text>
</g>
<!-- decimal&#45;&gt;fractional -->
<g id="edge8" class="edge"><title>decimal&#45;&gt;fractional</title>
<path fill="none" stroke="black" d="M267.303,-252.303C265.187,-260.102 262.638,-269.491 260.282,-278.171"/>
<polygon fill="black" stroke="black" points="256.884,-277.328 257.643,-287.896 263.64,-279.162 256.884,-277.328"/>
</g>
<!-- binary -->
<g id="node15" class="node"><title>binary</title>
<polygon fill="none" stroke="none" points="62,-324 0,-324 0,-288 62,-288 62,-324"/>
<text text-anchor="middle" x="31" y="-302.3" font-family="Consolas" font-size="14.00">binary</text>
</g>
<!-- binary&#45;&gt;stringish -->
<g id="edge9" class="edge"><title>binary&#45;&gt;stringish</title>
<path fill="none" stroke="black" d="M45.8315,-324.303C53.0247,-332.695 61.7967,-342.93 69.6903,-352.139"/>
<polygon fill="black" stroke="black" points="67.1738,-354.581 76.3391,-359.896 72.4886,-350.025 67.1738,-354.581"/>
</g>
<!-- string -->
<g id="node16" class="node"><title>string</title>
<polygon fill="none" stroke="none" points="142,-324 80,-324 80,-288 142,-288 142,-324"/>
<text text-anchor="middle" x="111" y="-302.3" font-family="Consolas" font-size="14.00">string</text>
</g>
<!-- string&#45;&gt;stringish -->
<g id="edge10" class="edge"><title>string&#45;&gt;stringish</title>
<path fill="none" stroke="black" d="M106.056,-324.303C103.828,-332.102 101.145,-341.491 98.6655,-350.171"/>
<polygon fill="black" stroke="black" points="95.2689,-349.319 95.887,-359.896 102,-351.242 95.2689,-349.319"/>
</g>
</g>
</svg>
