<?xml version="1.0" encoding="UTF-8" standalone="no"?>
<!DOCTYPE svg PUBLIC "-//W3C//DTD SVG 1.1//EN"
 "http://www.w3.org/Graphics/SVG/1.1/DTD/svg11.dtd">
<!-- Generated by graphviz version 2.38.0 (20140413.2041)
 -->
<!-- Title: Type Hierarchy Pages: 1 -->
<svg width="462pt" height="476pt"
 viewBox="0.00 0.00 462.00 476.00" xmlns="http://www.w3.org/2000/svg" xmlns:xlink="http://www.w3.org/1999/xlink">
<g id="graph0" class="graph" transform="scale(1 1) rotate(0) translate(4 472)">
<title>Type Hierarchy</title>
<polygon fill="white" stroke="none" points="-4,4 -4,-472 458,-472 458,4 -4,4"/>
<!-- integral -->
<g id="node1" class="node"><title>integral</title>
<polygon fill="none" stroke="gray" points="454,-252 362,-252 362,-216 454,-216 454,-252"/>
<text text-anchor="middle" x="408" y="-230.3" font-family="Consolas" font-size="14.00">&lt;integral&gt;</text>
</g>
<!-- numeric -->
<g id="node3" class="node"><title>numeric</title>
<polygon fill="none" stroke="gray" points="335,-324 251,-324 251,-288 335,-288 335,-324"/>
<text text-anchor="middle" x="293" y="-302.3" font-family="Consolas" font-size="14.00">&lt;numeric&gt;</text>
</g>
<!-- integral&#45;&gt;numeric -->
<g id="edge13" class="edge"><title>integral&#45;&gt;numeric</title>
<path fill="none" stroke="black" d="M379.868,-252.124C364.832,-261.276 346.133,-272.658 329.94,-282.515"/>
<polygon fill="black" stroke="black" points="327.962,-279.621 321.24,-287.81 331.602,-285.6 327.962,-279.621"/>
</g>
<!-- fractional -->
<g id="node2" class="node"><title>fractional</title>
<polygon fill="none" stroke="gray" points="343.5,-252 236.5,-252 236.5,-216 343.5,-216 343.5,-252"/>
<text text-anchor="middle" x="290" y="-230.3" font-family="Consolas" font-size="14.00">&lt;fractional&gt;</text>
</g>
<!-- fractional&#45;&gt;numeric -->
<g id="edge12" class="edge"><title>fractional&#45;&gt;numeric</title>
<path fill="none" stroke="black" d="M290.742,-252.303C291.072,-260.017 291.469,-269.288 291.838,-277.888"/>
<polygon fill="black" stroke="black" points="288.342,-278.055 292.267,-287.896 295.335,-277.755 288.342,-278.055"/>
</g>
<!-- scalar -->
<g id="node5" class="node"><title>scalar</title>
<polygon fill="none" stroke="gray" points="244.5,-396 167.5,-396 167.5,-360 244.5,-360 244.5,-396"/>
<text text-anchor="middle" x="206" y="-374.3" font-family="Consolas" font-size="14.00">&lt;scalar&gt;</text>
</g>
<!-- numeric&#45;&gt;scalar -->
<g id="edge14" class="edge"><title>numeric&#45;&gt;scalar</title>
<path fill="none" stroke="black" d="M271.494,-324.303C260.537,-333.119 247.054,-343.968 235.175,-353.526"/>
<polygon fill="black" stroke="black" points="232.855,-350.9 227.258,-359.896 237.244,-356.354 232.855,-350.9"/>
</g>
<!-- stringish -->
<g id="node4" class="node"><title>stringish</title>
<polygon fill="none" stroke="gray" points="160.5,-324 61.5,-324 61.5,-288 160.5,-288 160.5,-324"/>
<text text-anchor="middle" x="111" y="-302.3" font-family="Consolas" font-size="14.00">&lt;stringish&gt;</text>
</g>
<!-- stringish&#45;&gt;scalar -->
<g id="edge11" class="edge"><title>stringish&#45;&gt;scalar</title>
<path fill="none" stroke="black" d="M134.483,-324.303C146.563,-333.204 161.454,-344.177 174.516,-353.801"/>
<polygon fill="black" stroke="black" points="172.66,-356.781 182.787,-359.896 176.813,-351.146 172.66,-356.781"/>
</g>
<!-- any -->
<g id="node6" class="node"><title>any</title>
<polygon fill="none" stroke="gray" points="233,-468 179,-468 179,-432 233,-432 233,-468"/>
<text text-anchor="middle" x="206" y="-446.3" font-family="Consolas" font-size="14.00">&lt;any&gt;</text>
</g>
<!-- scalar&#45;&gt;any -->
<g id="edge15" class="edge"><title>scalar&#45;&gt;any</title>
<path fill="none" stroke="black" d="M206,-396.303C206,-404.017 206,-413.288 206,-421.888"/>
<polygon fill="black" stroke="black" points="202.5,-421.896 206,-431.896 209.5,-421.896 202.5,-421.896"/>
</g>
<!-- int16 -->
<g id="node7" class="node"><title>int16</title>
<polygon fill="none" stroke="none" points="435,-180 381,-180 381,-144 435,-144 435,-180"/>
<text text-anchor="middle" x="408" y="-158.3" font-family="Consolas" font-size="14.00">int16</text>
</g>
<!-- int16&#45;&gt;integral -->
<g id="edge1" class="edge"><title>int16&#45;&gt;integral</title>
<path fill="none" stroke="black" d="M408,-180.303C408,-188.017 408,-197.288 408,-205.888"/>
<polygon fill="black" stroke="black" points="404.5,-205.896 408,-215.896 411.5,-205.896 404.5,-205.896"/>
</g>
<!-- int32 -->
<g id="node8" class="node"><title>int32</title>
<polygon fill="none" stroke="none" points="435,-108 381,-108 381,-72 435,-72 435,-108"/>
<text text-anchor="middle" x="408" y="-86.3" font-family="Consolas" font-size="14.00">int32</text>
</g>
<!-- int32&#45;&gt;int16 -->
<g id="edge2" class="edge"><title>int32&#45;&gt;int16</title>
<path fill="none" stroke="black" d="M408,-108.303C408,-116.017 408,-125.288 408,-133.888"/>
<polygon fill="black" stroke="black" points="404.5,-133.896 408,-143.896 411.5,-133.896 404.5,-133.896"/>
</g>
<!-- int64 -->
<g id="node9" class="node"><title>int64</title>
<polygon fill="none" stroke="none" points="435,-36 381,-36 381,-0 435,-0 435,-36"/>
<text text-anchor="middle" x="408" y="-14.3" font-family="Consolas" font-size="14.00">int64</text>
</g>
<!-- int64&#45;&gt;int32 -->
<g id="edge3" class="edge"><title>int64&#45;&gt;int32</title>
<path fill="none" stroke="black" d="M408,-36.3034C408,-44.0173 408,-53.2875 408,-61.8876"/>
<polygon fill="black" stroke="black" points="404.5,-61.8956 408,-71.8957 411.5,-61.8957 404.5,-61.8956"/>
</g>
<!-- bool -->
<g id="node10" class="node"><title>bool</title>
<polygon fill="none" stroke="none" points="233,-324 179,-324 179,-288 233,-288 233,-324"/>
<text text-anchor="middle" x="206" y="-302.3" font-family="Consolas" font-size="14.00">bool</text>
</g>
<!-- bool&#45;&gt;scalar -->
<g id="edge4" class="edge"><title>bool&#45;&gt;scalar</title>
<path fill="none" stroke="black" d="M206,-324.303C206,-332.017 206,-341.288 206,-349.888"/>
<polygon fill="black" stroke="black" points="202.5,-349.896 206,-359.896 209.5,-349.896 202.5,-349.896"/>
</g>
<!-- float32 -->
<g id="node11" class="node"><title>float32</title>
<polygon fill="none" stroke="none" points="256.5,-180 187.5,-180 187.5,-144 256.5,-144 256.5,-180"/>
<text text-anchor="middle" x="222" y="-158.3" font-family="Consolas" font-size="14.00">float32</text>
</g>
<!-- float32&#45;&gt;fractional -->
<g id="edge5" class="edge"><title>float32&#45;&gt;fractional</title>
<path fill="none" stroke="black" d="M238.809,-180.303C247.126,-188.865 257.305,-199.344 266.39,-208.696"/>
<polygon fill="black" stroke="black" points="263.906,-211.162 273.384,-215.896 268.927,-206.284 263.906,-211.162"/>
</g>
<!-- float64 -->
<g id="node12" class="node"><title>float64</title>
<polygon fill="none" stroke="none" points="256.5,-108 187.5,-108 187.5,-72 256.5,-72 256.5,-108"/>
<text text-anchor="middle" x="222" y="-86.3" font-family="Consolas" font-size="14.00">float64</text>
</g>
<!-- float64&#45;&gt;float32 -->
<g id="edge6" class="edge"><title>float64&#45;&gt;float32</title>
<path fill="none" stroke="black" d="M222,-108.303C222,-116.017 222,-125.288 222,-133.888"/>
<polygon fill="black" stroke="black" points="218.5,-133.896 222,-143.896 225.5,-133.896 218.5,-133.896"/>
</g>
<!-- decimal -->
<g id="node13" class="node"><title>decimal</title>
<polygon fill="none" stroke="none" points="343.5,-180 274.5,-180 274.5,-144 343.5,-144 343.5,-180"/>
<text text-anchor="middle" x="309" y="-158.3" font-family="Consolas" font-size="14.00">decimal</text>
</g>
<!-- decimal&#45;&gt;fractional -->
<g id="edge7" class="edge"><title>decimal&#45;&gt;fractional</title>
<path fill="none" stroke="black" d="M304.303,-180.303C302.187,-188.102 299.638,-197.491 297.282,-206.171"/>
<polygon fill="black" stroke="black" points="293.884,-205.328 294.643,-215.896 300.64,-207.162 293.884,-205.328"/>
</g>
<!-- binary -->
<g id="node14" class="node"><title>binary</title>
<polygon fill="none" stroke="none" points="62,-252 0,-252 0,-216 62,-216 62,-252"/>
<text text-anchor="middle" x="31" y="-230.3" font-family="Consolas" font-size="14.00">binary</text>
</g>
<!-- binary&#45;&gt;stringish -->
<g id="edge8" class="edge"><title>binary&#45;&gt;stringish</title>
<path fill="none" stroke="black" d="M50.7753,-252.303C60.7537,-261.035 73.0109,-271.76 83.8568,-281.25"/>
<polygon fill="black" stroke="black" points="81.6216,-283.945 91.4522,-287.896 86.2312,-278.677 81.6216,-283.945"/>
</g>
<!-- string -->
<g id="node15" class="node"><title>string</title>
<polygon fill="none" stroke="none" points="142,-252 80,-252 80,-216 142,-216 142,-252"/>
<text text-anchor="middle" x="111" y="-230.3" font-family="Consolas" font-size="14.00">string</text>
</g>
<!-- string&#45;&gt;stringish -->
<g id="edge9" class="edge"><title>string&#45;&gt;stringish</title>
<path fill="none" stroke="black" d="M111,-252.303C111,-260.017 111,-269.288 111,-277.888"/>
<polygon fill="black" stroke="black" points="107.5,-277.896 111,-287.896 114.5,-277.896 107.5,-277.896"/>
</g>
<!-- guid -->
<g id="node16" class="node"><title>guid</title>
<polygon fill="none" stroke="none" points="214,-252 160,-252 160,-216 214,-216 214,-252"/>
<text text-anchor="middle" x="187" y="-230.3" font-family="Consolas" font-size="14.00">guid</text>
</g>
<!-- guid&#45;&gt;stringish -->
<g id="edge10" class="edge"><title>guid&#45;&gt;stringish</title>
<path fill="none" stroke="black" d="M168.213,-252.303C158.826,-260.95 147.316,-271.551 137.087,-280.973"/>
<polygon fill="black" stroke="black" points="134.555,-278.546 129.57,-287.896 139.297,-283.695 134.555,-278.546"/>
</g>
</g>
</svg>
