<?xml version="1.0" encoding="UTF-8" standalone="no"?>
<!DOCTYPE svg PUBLIC "-//W3C//DTD SVG 1.1//EN"
 "http://www.w3.org/Graphics/SVG/1.1/DTD/svg11.dtd">
<!-- Generated by graphviz version 2.38.0 (20140413.2041)
 -->
<!-- Title: Type Hierarchy Pages: 1 -->
<svg width="462pt" height="548pt"
 viewBox="0.00 0.00 462.00 548.00" xmlns="http://www.w3.org/2000/svg" xmlns:xlink="http://www.w3.org/1999/xlink">
<g id="graph0" class="graph" transform="scale(1 1) rotate(0) translate(4 544)">
<title>Type Hierarchy</title>
<polygon fill="white" stroke="none" points="-4,4 -4,-544 458,-544 458,4 -4,4"/>
<!-- integral -->
<g id="node1" class="node"><title>integral</title>
<polygon fill="none" stroke="gray" points="454,-324 362,-324 362,-288 454,-288 454,-324"/>
<text text-anchor="middle" x="408" y="-302.3" font-family="Consolas" font-size="14.00">&lt;integral&gt;</text>
</g>
<!-- numeric -->
<g id="node3" class="node"><title>numeric</title>
<polygon fill="none" stroke="gray" points="335,-396 251,-396 251,-360 335,-360 335,-396"/>
<text text-anchor="middle" x="293" y="-374.3" font-family="Consolas" font-size="14.00">&lt;numeric&gt;</text>
</g>
<!-- integral&#45;&gt;numeric -->
<g id="edge14" class="edge"><title>integral&#45;&gt;numeric</title>
<path fill="none" stroke="black" d="M379.868,-324.124C364.832,-333.276 346.133,-344.658 329.94,-354.515"/>
<polygon fill="black" stroke="black" points="327.962,-351.621 321.24,-359.81 331.602,-357.6 327.962,-351.621"/>
</g>
<!-- fractional -->
<g id="node2" class="node"><title>fractional</title>
<polygon fill="none" stroke="gray" points="343.5,-324 236.5,-324 236.5,-288 343.5,-288 343.5,-324"/>
<text text-anchor="middle" x="290" y="-302.3" font-family="Consolas" font-size="14.00">&lt;fractional&gt;</text>
</g>
<!-- fractional&#45;&gt;numeric -->
<g id="edge13" class="edge"><title>fractional&#45;&gt;numeric</title>
<path fill="none" stroke="black" d="M290.742,-324.303C291.072,-332.017 291.469,-341.288 291.838,-349.888"/>
<polygon fill="black" stroke="black" points="288.342,-350.055 292.267,-359.896 295.335,-349.755 288.342,-350.055"/>
</g>
<!-- scalar -->
<g id="node5" class="node"><title>scalar</title>
<polygon fill="none" stroke="gray" points="244.5,-468 167.5,-468 167.5,-432 244.5,-432 244.5,-468"/>
<text text-anchor="middle" x="206" y="-446.3" font-family="Consolas" font-size="14.00">&lt;scalar&gt;</text>
</g>
<!-- numeric&#45;&gt;scalar -->
<g id="edge15" class="edge"><title>numeric&#45;&gt;scalar</title>
<path fill="none" stroke="black" d="M271.494,-396.303C260.537,-405.119 247.054,-415.968 235.175,-425.526"/>
<polygon fill="black" stroke="black" points="232.855,-422.9 227.258,-431.896 237.244,-428.354 232.855,-422.9"/>
</g>
<!-- stringish -->
<g id="node4" class="node"><title>stringish</title>
<polygon fill="none" stroke="gray" points="160.5,-396 61.5,-396 61.5,-360 160.5,-360 160.5,-396"/>
<text text-anchor="middle" x="111" y="-374.3" font-family="Consolas" font-size="14.00">&lt;stringish&gt;</text>
</g>
<!-- stringish&#45;&gt;scalar -->
<g id="edge12" class="edge"><title>stringish&#45;&gt;scalar</title>
<path fill="none" stroke="black" d="M134.483,-396.303C146.563,-405.204 161.454,-416.177 174.516,-425.801"/>
<polygon fill="black" stroke="black" points="172.66,-428.781 182.787,-431.896 176.813,-423.146 172.66,-428.781"/>
</g>
<!-- any -->
<g id="node6" class="node"><title>any</title>
<polygon fill="none" stroke="gray" points="233,-540 179,-540 179,-504 233,-504 233,-540"/>
<text text-anchor="middle" x="206" y="-518.3" font-family="Consolas" font-size="14.00">&lt;any&gt;</text>
</g>
<!-- scalar&#45;&gt;any -->
<g id="edge16" class="edge"><title>scalar&#45;&gt;any</title>
<path fill="none" stroke="black" d="M206,-468.303C206,-476.017 206,-485.288 206,-493.888"/>
<polygon fill="black" stroke="black" points="202.5,-493.896 206,-503.896 209.5,-493.896 202.5,-493.896"/>
</g>
<!-- int8 -->
<g id="node7" class="node"><title>int8</title>
<polygon fill="none" stroke="none" points="435,-252 381,-252 381,-216 435,-216 435,-252"/>
<text text-anchor="middle" x="408" y="-230.3" font-family="Consolas" font-size="14.00">int8</text>
</g>
<!-- int8&#45;&gt;integral -->
<g id="edge1" class="edge"><title>int8&#45;&gt;integral</title>
<path fill="none" stroke="black" d="M408,-252.303C408,-260.017 408,-269.288 408,-277.888"/>
<polygon fill="black" stroke="black" points="404.5,-277.896 408,-287.896 411.5,-277.896 404.5,-277.896"/>
</g>
<!-- int16 -->
<g id="node8" class="node"><title>int16</title>
<polygon fill="none" stroke="none" points="435,-180 381,-180 381,-144 435,-144 435,-180"/>
<text text-anchor="middle" x="408" y="-158.3" font-family="Consolas" font-size="14.00">int16</text>
</g>
<!-- int16&#45;&gt;int8 -->
<g id="edge2" class="edge"><title>int16&#45;&gt;int8</title>
<path fill="none" stroke="black" d="M408,-180.303C408,-188.017 408,-197.288 408,-205.888"/>
<polygon fill="black" stroke="black" points="404.5,-205.896 408,-215.896 411.5,-205.896 404.5,-205.896"/>
</g>
<!-- int32 -->
<g id="node9" class="node"><title>int32</title>
<polygon fill="none" stroke="none" points="435,-108 381,-108 381,-72 435,-72 435,-108"/>
<text text-anchor="middle" x="408" y="-86.3" font-family="Consolas" font-size="14.00">int32</text>
</g>
<!-- int32&#45;&gt;int16 -->
<g id="edge3" class="edge"><title>int32&#45;&gt;int16</title>
<path fill="none" stroke="black" d="M408,-108.303C408,-116.017 408,-125.288 408,-133.888"/>
<polygon fill="black" stroke="black" points="404.5,-133.896 408,-143.896 411.5,-133.896 404.5,-133.896"/>
</g>
<!-- int64 -->
<g id="node10" class="node"><title>int64</title>
<polygon fill="none" stroke="none" points="435,-36 381,-36 381,-0 435,-0 435,-36"/>
<text text-anchor="middle" x="408" y="-14.3" font-family="Consolas" font-size="14.00">int64</text>
</g>
<!-- int64&#45;&gt;int32 -->
<g id="edge4" class="edge"><title>int64&#45;&gt;int32</title>
<path fill="none" stroke="black" d="M408,-36.3034C408,-44.0173 408,-53.2875 408,-61.8876"/>
<polygon fill="black" stroke="black" points="404.5,-61.8956 408,-71.8957 411.5,-61.8957 404.5,-61.8956"/>
</g>
<!-- bool -->
<g id="node11" class="node"><title>bool</title>
<polygon fill="none" stroke="none" points="233,-396 179,-396 179,-360 233,-360 233,-396"/>
<text text-anchor="middle" x="206" y="-374.3" font-family="Consolas" font-size="14.00">bool</text>
</g>
<!-- bool&#45;&gt;scalar -->
<g id="edge5" class="edge"><title>bool&#45;&gt;scalar</title>
<path fill="none" stroke="black" d="M206,-396.303C206,-404.017 206,-413.288 206,-421.888"/>
<polygon fill="black" stroke="black" points="202.5,-421.896 206,-431.896 209.5,-421.896 202.5,-421.896"/>
</g>
<!-- float32 -->
<g id="node12" class="node"><title>float32</title>
<polygon fill="none" stroke="none" points="256.5,-252 187.5,-252 187.5,-216 256.5,-216 256.5,-252"/>
<text text-anchor="middle" x="222" y="-230.3" font-family="Consolas" font-size="14.00">float32</text>
</g>
<!-- float32&#45;&gt;fractional -->
<g id="edge6" class="edge"><title>float32&#45;&gt;fractional</title>
<path fill="none" stroke="black" d="M238.809,-252.303C247.126,-260.865 257.305,-271.344 266.39,-280.696"/>
<polygon fill="black" stroke="black" points="263.906,-283.162 273.384,-287.896 268.927,-278.284 263.906,-283.162"/>
</g>
<!-- float64 -->
<g id="node13" class="node"><title>float64</title>
<polygon fill="none" stroke="none" points="256.5,-180 187.5,-180 187.5,-144 256.5,-144 256.5,-180"/>
<text text-anchor="middle" x="222" y="-158.3" font-family="Consolas" font-size="14.00">float64</text>
</g>
<!-- float64&#45;&gt;float32 -->
<g id="edge7" class="edge"><title>float64&#45;&gt;float32</title>
<path fill="none" stroke="black" d="M222,-180.303C222,-188.017 222,-197.288 222,-205.888"/>
<polygon fill="black" stroke="black" points="218.5,-205.896 222,-215.896 225.5,-205.896 218.5,-205.896"/>
</g>
<!-- decimal -->
<g id="node14" class="node"><title>decimal</title>
<polygon fill="none" stroke="none" points="343.5,-252 274.5,-252 274.5,-216 343.5,-216 343.5,-252"/>
<text text-anchor="middle" x="309" y="-230.3" font-family="Consolas" font-size="14.00">decimal</text>
</g>
<!-- decimal&#45;&gt;fractional -->
<g id="edge8" class="edge"><title>decimal&#45;&gt;fractional</title>
<path fill="none" stroke="black" d="M304.303,-252.303C302.187,-260.102 299.638,-269.491 297.282,-278.171"/>
<polygon fill="black" stroke="black" points="293.884,-277.328 294.643,-287.896 300.64,-279.162 293.884,-277.328"/>
</g>
<!-- binary -->
<g id="node15" class="node"><title>binary</title>
<polygon fill="none" stroke="none" points="62,-324 0,-324 0,-288 62,-288 62,-324"/>
<text text-anchor="middle" x="31" y="-302.3" font-family="Consolas" font-size="14.00">binary</text>
</g>
<!-- binary&#45;&gt;stringish -->
<g id="edge9" class="edge"><title>binary&#45;&gt;stringish</title>
<path fill="none" stroke="black" d="M50.7753,-324.303C60.7537,-333.035 73.0109,-343.76 83.8568,-353.25"/>
<polygon fill="black" stroke="black" points="81.6216,-355.945 91.4522,-359.896 86.2312,-350.677 81.6216,-355.945"/>
</g>
<!-- string -->
<g id="node16" class="node"><title>string</title>
<polygon fill="none" stroke="none" points="142,-324 80,-324 80,-288 142,-288 142,-324"/>
<text text-anchor="middle" x="111" y="-302.3" font-family="Consolas" font-size="14.00">string</text>
</g>
<!-- string&#45;&gt;stringish -->
<g id="edge10" class="edge"><title>string&#45;&gt;stringish</title>
<path fill="none" stroke="black" d="M111,-324.303C111,-332.017 111,-341.288 111,-349.888"/>
<polygon fill="black" stroke="black" points="107.5,-349.896 111,-359.896 114.5,-349.896 107.5,-349.896"/>
</g>
<!-- guid -->
<g id="node17" class="node"><title>guid</title>
<polygon fill="none" stroke="none" points="214,-324 160,-324 160,-288 214,-288 214,-324"/>
<text text-anchor="middle" x="187" y="-302.3" font-family="Consolas" font-size="14.00">guid</text>
</g>
<!-- guid&#45;&gt;stringish -->
<g id="edge11" class="edge"><title>guid&#45;&gt;stringish</title>
<path fill="none" stroke="black" d="M168.213,-324.303C158.826,-332.95 147.316,-343.551 137.087,-352.973"/>
<polygon fill="black" stroke="black" points="134.555,-350.546 129.57,-359.896 139.297,-355.695 134.555,-350.546"/>
</g>
</g>
</svg>
