<?xml version="1.0" encoding="UTF-8" standalone="no"?>
<!DOCTYPE svg PUBLIC "-//W3C//DTD SVG 1.1//EN"
 "http://www.w3.org/Graphics/SVG/1.1/DTD/svg11.dtd">
<!-- Generated by graphviz version 2.38.0 (20140413.2041)
 -->
<!-- Title: Migration Tree 1 Pages: 1 -->
<svg width="275pt" height="76pt"
 viewBox="0.00 0.00 275.00 76.00" xmlns="http://www.w3.org/2000/svg" xmlns:xlink="http://www.w3.org/1999/xlink">
<g id="graph0" class="graph" transform="scale(1 1) rotate(0) translate(4 72)">
<title>Migration Tree 1</title>
<polygon fill="white" stroke="none" points="-4,4 -4,-72 271,-72 271,4 -4,4"/>
<g id="clust1" class="cluster"><title>cluster_v1</title>
<polygon fill="none" stroke="black" points="8,-8 8,-60 131,-60 131,-8 8,-8"/>
</g>
<g id="clust2" class="cluster"><title>cluster_v2</title>
<polygon fill="none" stroke="black" points="151,-8 151,-60 259,-60 259,-8 151,-8"/>
</g>
<!-- model -->
<g id="node1" class="node"><title>model</title>
<polygon fill="none" stroke="none" points="123,-52 16,-52 16,-16 123,-16 123,-52"/>
<text text-anchor="middle" x="69.5" y="-30.3" font-family="Consolas" font-size="14.00">V1.model.sql</text>
</g>
<!-- foo -->
<g id="node2" class="node"><title>foo</title>
<polygon fill="none" stroke="none" points="251,-52 159,-52 159,-16 251,-16 251,-52"/>
<text text-anchor="middle" x="205" y="-30.3" font-family="Consolas" font-size="14.00">V2.foo.sql</text>
</g>
<!-- model&#45;&gt;foo -->
<g id="edge1" class="edge"><title>model&#45;&gt;foo</title>
<path fill="none" stroke="red" d="M123.263,-34C131.657,-34 140.36,-34 148.808,-34"/>
<polygon fill="red" stroke="red" points="148.948,-37.5001 158.948,-34 148.948,-30.5001 148.948,-37.5001"/>
</g>
</g>
</svg>
