<?xml version="1.0" encoding="UTF-8" standalone="no"?>
<!DOCTYPE svg PUBLIC "-//W3C//DTD SVG 1.1//EN"
 "http://www.w3.org/Graphics/SVG/1.1/DTD/svg11.dtd">
<!-- Generated by graphviz version 2.38.0 (20140413.2041)
 -->
<!-- Title: Migration Tree 2 Pages: 1 -->
<svg width="433pt" height="130pt"
 viewBox="0.00 0.00 433.00 130.00" xmlns="http://www.w3.org/2000/svg" xmlns:xlink="http://www.w3.org/1999/xlink">
<g id="graph0" class="graph" transform="scale(1 1) rotate(0) translate(4 126)">
<title>Migration Tree 2</title>
<polygon fill="white" stroke="none" points="-4,4 -4,-126 429,-126 429,4 -4,4"/>
<g id="clust1" class="cluster"><title>cluster_v1</title>
<polygon fill="none" stroke="black" points="8,-22 8,-74 131,-74 131,-22 8,-22"/>
</g>
<g id="clust2" class="cluster"><title>cluster_v2</title>
<polygon fill="none" stroke="black" points="151,-8 151,-114 417,-114 417,-8 151,-8"/>
</g>
<!-- model -->
<g id="node1" class="node"><title>model</title>
<polygon fill="none" stroke="none" points="123,-66 16,-66 16,-30 123,-30 123,-66"/>
<text text-anchor="middle" x="69.5" y="-44.3" font-family="Consolas" font-size="14.00">V1.model.sql</text>
</g>
<!-- foo -->
<g id="node2" class="node"><title>foo</title>
<polygon fill="none" stroke="none" points="251,-66 159,-66 159,-30 251,-30 251,-66"/>
<text text-anchor="middle" x="205" y="-44.3" font-family="Consolas" font-size="14.00">V2.foo.sql</text>
</g>
<!-- model&#45;&gt;foo -->
<g id="edge3" class="edge"><title>model&#45;&gt;foo</title>
<path fill="none" stroke="red" d="M123.263,-48C131.657,-48 140.36,-48 148.808,-48"/>
<polygon fill="red" stroke="red" points="148.948,-51.5001 158.948,-48 148.948,-44.5001 148.948,-51.5001"/>
</g>
<!-- bar -->
<g id="node3" class="node"><title>bar</title>
<polygon fill="none" stroke="none" points="409,-52 287,-52 287,-16 409,-16 409,-52"/>
<text text-anchor="middle" x="348" y="-30.3" font-family="Consolas" font-size="14.00">V2.foo&#45;bar.sql</text>
</g>
<!-- foo&#45;&gt;bar -->
<g id="edge1" class="edge"><title>foo&#45;&gt;bar</title>
<path fill="none" stroke="black" d="M251.001,-43.5318C259.316,-42.7062 268.178,-41.8263 277.029,-40.9475"/>
<polygon fill="black" stroke="black" points="277.382,-44.4297 286.988,-39.9587 276.691,-37.4639 277.382,-44.4297"/>
</g>
<!-- baz -->
<g id="node4" class="node"><title>baz</title>
<polygon fill="none" stroke="none" points="409,-106 287,-106 287,-70 409,-70 409,-106"/>
<text text-anchor="middle" x="348" y="-84.3" font-family="Consolas" font-size="14.00">V2.foo&#45;baz.sql</text>
</g>
<!-- foo&#45;&gt;baz -->
<g id="edge2" class="edge"><title>foo&#45;&gt;baz</title>
<path fill="none" stroke="black" d="M251.001,-60.7662C259.405,-63.1505 268.369,-65.6933 277.315,-68.2311"/>
<polygon fill="black" stroke="black" points="276.412,-71.6131 286.988,-70.9752 278.323,-64.8788 276.412,-71.6131"/>
</g>
</g>
</svg>
