<?xml version="1.0" encoding="UTF-8" standalone="no"?>
<!DOCTYPE svg PUBLIC "-//W3C//DTD SVG 1.1//EN"
 "http://www.w3.org/Graphics/SVG/1.1/DTD/svg11.dtd">
<!-- Generated by graphviz version 2.28.0 (20110507.0327)
 -->
<!-- Title: linear Pages: 1 -->
<svg width="558pt" height="404pt"
 viewBox="0.00 0.00 558.00 404.00" xmlns="http://www.w3.org/2000/svg" xmlns:xlink="http://www.w3.org/1999/xlink">
<g id="graph1" class="graph" transform="scale(1 1) rotate(0) translate(4 400)">
<title>linear</title>
<polygon fill="white" stroke="white" points="-4,5 -4,-400 555,-400 555,5 -4,5"/>
<!-- a_start -->
<g id="node2" class="node"><title>a_start</title>
<polygon fill="none" stroke="black" points="100,-396 46,-396 46,-360 100,-360 100,-396"/>
<text text-anchor="middle" x="73" y="-374.3" font-family="Times New Roman,serif" font-size="14.00">Start</text>
</g>
<!-- a_cupb -->
<g id="node3" class="node"><title>a_cupb</title>
<polygon fill="none" stroke="red" points="146,-324 0,-324 0,-288 146,-288 146,-324"/>
<text text-anchor="middle" x="73" y="-302.3" font-family="Times New Roman,serif" font-size="14.00">Cupboard (ingredients)</text>
</g>
<!-- a_start&#45;&gt;a_cupb -->
<g id="edge3" class="edge"><title>a_start&#45;&gt;a_cupb</title>
<path fill="none" stroke="black" d="M73,-359.697C73,-351.983 73,-342.712 73,-334.112"/>
<polygon fill="black" stroke="black" points="76.5001,-334.104 73,-324.104 69.5001,-334.104 76.5001,-334.104"/>
</g>
<!-- a_fridge -->
<g id="node4" class="node"><title>a_fridge</title>
<polygon fill="none" stroke="red" points="135.25,-252 10.75,-252 10.75,-216 135.25,-216 135.25,-252"/>
<text text-anchor="middle" x="73" y="-230.3" font-family="Times New Roman,serif" font-size="14.00">Fridge (ingredients)</text>
</g>
<!-- a_cupb&#45;&gt;a_fridge -->
<g id="edge5" class="edge"><title>a_cupb&#45;&gt;a_fridge</title>
<path fill="none" stroke="black" d="M73,-287.697C73,-279.983 73,-270.712 73,-262.112"/>
<polygon fill="black" stroke="black" points="76.5001,-262.104 73,-252.104 69.5001,-262.104 76.5001,-262.104"/>
</g>
<!-- a_oven -->
<g id="node5" class="node"><title>a_oven</title>
<polygon fill="none" stroke="red" points="116,-180 30,-180 30,-144 116,-144 116,-180"/>
<text text-anchor="middle" x="73" y="-158.3" font-family="Times New Roman,serif" font-size="14.00">Oven (bake)</text>
</g>
<!-- a_fridge&#45;&gt;a_oven -->
<g id="edge7" class="edge"><title>a_fridge&#45;&gt;a_oven</title>
<path fill="none" stroke="black" d="M73,-215.697C73,-207.983 73,-198.712 73,-190.112"/>
<polygon fill="black" stroke="black" points="76.5001,-190.104 73,-180.104 69.5001,-190.104 76.5001,-190.104"/>
</g>
<!-- a_frost -->
<g id="node6" class="node"><title>a_frost</title>
<polygon fill="none" stroke="red" points="137.25,-108 8.75,-108 8.75,-72 137.25,-72 137.25,-108"/>
<text text-anchor="middle" x="73" y="-86.3" font-family="Times New Roman,serif" font-size="14.00">Cupboard (frosting)</text>
</g>
<!-- a_oven&#45;&gt;a_frost -->
<g id="edge9" class="edge"><title>a_oven&#45;&gt;a_frost</title>
<path fill="none" stroke="black" d="M73,-143.697C73,-135.983 73,-126.712 73,-118.112"/>
<polygon fill="black" stroke="black" points="76.5001,-118.104 73,-108.104 69.5001,-118.104 76.5001,-118.104"/>
</g>
<!-- a_cake -->
<g id="node7" class="node"><title>a_cake</title>
<polygon fill="none" stroke="black" points="101,-36 45,-36 45,-0 101,-0 101,-36"/>
<text text-anchor="middle" x="73" y="-14.3" font-family="Times New Roman,serif" font-size="14.00">Cake 1</text>
</g>
<!-- a_frost&#45;&gt;a_cake -->
<g id="edge11" class="edge"><title>a_frost&#45;&gt;a_cake</title>
<path fill="none" stroke="black" d="M73,-71.6966C73,-63.9827 73,-54.7125 73,-46.1124"/>
<polygon fill="black" stroke="black" points="76.5001,-46.1043 73,-36.1043 69.5001,-46.1044 76.5001,-46.1043"/>
</g>
<!-- b_start -->
<g id="node14" class="node"><title>b_start</title>
<polygon fill="none" stroke="black" points="302,-396 248,-396 248,-360 302,-360 302,-396"/>
<text text-anchor="middle" x="275" y="-374.3" font-family="Times New Roman,serif" font-size="14.00">Next</text>
</g>
<!-- a_cake&#45;&gt;b_start -->
<g id="edge35" class="edge"><title>a_cake&#45;&gt;b_start</title>
<path fill="none" stroke="black" d="M101.103,-32.5798C116.755,-41.5969 135.207,-54.9213 146,-72 206.866,-168.31 129.547,-229.374 193,-324 204.048,-340.476 222.132,-352.965 238.51,-361.668"/>
<polygon fill="black" stroke="black" points="237.38,-365.016 247.89,-366.356 240.51,-358.755 237.38,-365.016"/>
</g>
<!-- b_cupb -->
<g id="node15" class="node"><title>b_cupb</title>
<polygon fill="none" stroke="red" points="348,-324 202,-324 202,-288 348,-288 348,-324"/>
<text text-anchor="middle" x="275" y="-302.3" font-family="Times New Roman,serif" font-size="14.00">Cupboard (ingredients)</text>
</g>
<!-- b_start&#45;&gt;b_cupb -->
<g id="edge14" class="edge"><title>b_start&#45;&gt;b_cupb</title>
<path fill="none" stroke="black" d="M275,-359.697C275,-351.983 275,-342.712 275,-334.112"/>
<polygon fill="black" stroke="black" points="278.5,-334.104 275,-324.104 271.5,-334.104 278.5,-334.104"/>
</g>
<!-- b_fridge -->
<g id="node16" class="node"><title>b_fridge</title>
<polygon fill="none" stroke="red" points="337.25,-252 212.75,-252 212.75,-216 337.25,-216 337.25,-252"/>
<text text-anchor="middle" x="275" y="-230.3" font-family="Times New Roman,serif" font-size="14.00">Fridge (ingredients)</text>
</g>
<!-- b_cupb&#45;&gt;b_fridge -->
<g id="edge16" class="edge"><title>b_cupb&#45;&gt;b_fridge</title>
<path fill="none" stroke="black" d="M275,-287.697C275,-279.983 275,-270.712 275,-262.112"/>
<polygon fill="black" stroke="black" points="278.5,-262.104 275,-252.104 271.5,-262.104 278.5,-262.104"/>
</g>
<!-- b_oven -->
<g id="node17" class="node"><title>b_oven</title>
<polygon fill="none" stroke="red" points="318,-180 232,-180 232,-144 318,-144 318,-180"/>
<text text-anchor="middle" x="275" y="-158.3" font-family="Times New Roman,serif" font-size="14.00">Oven (bake)</text>
</g>
<!-- b_fridge&#45;&gt;b_oven -->
<g id="edge18" class="edge"><title>b_fridge&#45;&gt;b_oven</title>
<path fill="none" stroke="black" d="M275,-215.697C275,-207.983 275,-198.712 275,-190.112"/>
<polygon fill="black" stroke="black" points="278.5,-190.104 275,-180.104 271.5,-190.104 278.5,-190.104"/>
</g>
<!-- b_frost -->
<g id="node18" class="node"><title>b_frost</title>
<polygon fill="none" stroke="red" points="339.25,-108 210.75,-108 210.75,-72 339.25,-72 339.25,-108"/>
<text text-anchor="middle" x="275" y="-86.3" font-family="Times New Roman,serif" font-size="14.00">Cupboard (frosting)</text>
</g>
<!-- b_oven&#45;&gt;b_frost -->
<g id="edge20" class="edge"><title>b_oven&#45;&gt;b_frost</title>
<path fill="none" stroke="black" d="M275,-143.697C275,-135.983 275,-126.712 275,-118.112"/>
<polygon fill="black" stroke="black" points="278.5,-118.104 275,-108.104 271.5,-118.104 278.5,-118.104"/>
</g>
<!-- b_cake -->
<g id="node19" class="node"><title>b_cake</title>
<polygon fill="none" stroke="black" points="303,-36 247,-36 247,-0 303,-0 303,-36"/>
<text text-anchor="middle" x="275" y="-14.3" font-family="Times New Roman,serif" font-size="14.00">Cake 2</text>
</g>
<!-- b_frost&#45;&gt;b_cake -->
<g id="edge22" class="edge"><title>b_frost&#45;&gt;b_cake</title>
<path fill="none" stroke="black" d="M275,-71.6966C275,-63.9827 275,-54.7125 275,-46.1124"/>
<polygon fill="black" stroke="black" points="278.5,-46.1043 275,-36.1043 271.5,-46.1044 278.5,-46.1043"/>
</g>
<!-- c_start -->
<g id="node26" class="node"><title>c_start</title>
<polygon fill="none" stroke="black" points="504,-396 450,-396 450,-360 504,-360 504,-396"/>
<text text-anchor="middle" x="477" y="-374.3" font-family="Times New Roman,serif" font-size="14.00">Next</text>
</g>
<!-- b_cake&#45;&gt;c_start -->
<g id="edge37" class="edge"><title>b_cake&#45;&gt;c_start</title>
<path fill="none" stroke="black" d="M303.103,-32.5798C318.755,-41.5969 337.207,-54.9213 348,-72 408.866,-168.31 331.547,-229.374 395,-324 406.048,-340.476 424.132,-352.965 440.51,-361.668"/>
<polygon fill="black" stroke="black" points="439.38,-365.016 449.89,-366.356 442.51,-358.755 439.38,-365.016"/>
</g>
<!-- c_cupb -->
<g id="node27" class="node"><title>c_cupb</title>
<polygon fill="none" stroke="red" points="550,-324 404,-324 404,-288 550,-288 550,-324"/>
<text text-anchor="middle" x="477" y="-302.3" font-family="Times New Roman,serif" font-size="14.00">Cupboard (ingredients)</text>
</g>
<!-- c_start&#45;&gt;c_cupb -->
<g id="edge25" class="edge"><title>c_start&#45;&gt;c_cupb</title>
<path fill="none" stroke="black" d="M477,-359.697C477,-351.983 477,-342.712 477,-334.112"/>
<polygon fill="black" stroke="black" points="480.5,-334.104 477,-324.104 473.5,-334.104 480.5,-334.104"/>
</g>
<!-- c_fridge -->
<g id="node28" class="node"><title>c_fridge</title>
<polygon fill="none" stroke="red" points="539.25,-252 414.75,-252 414.75,-216 539.25,-216 539.25,-252"/>
<text text-anchor="middle" x="477" y="-230.3" font-family="Times New Roman,serif" font-size="14.00">Fridge (ingredients)</text>
</g>
<!-- c_cupb&#45;&gt;c_fridge -->
<g id="edge27" class="edge"><title>c_cupb&#45;&gt;c_fridge</title>
<path fill="none" stroke="black" d="M477,-287.697C477,-279.983 477,-270.712 477,-262.112"/>
<polygon fill="black" stroke="black" points="480.5,-262.104 477,-252.104 473.5,-262.104 480.5,-262.104"/>
</g>
<!-- c_oven -->
<g id="node29" class="node"><title>c_oven</title>
<polygon fill="none" stroke="red" points="520,-180 434,-180 434,-144 520,-144 520,-180"/>
<text text-anchor="middle" x="477" y="-158.3" font-family="Times New Roman,serif" font-size="14.00">Oven (bake)</text>
</g>
<!-- c_fridge&#45;&gt;c_oven -->
<g id="edge29" class="edge"><title>c_fridge&#45;&gt;c_oven</title>
<path fill="none" stroke="black" d="M477,-215.697C477,-207.983 477,-198.712 477,-190.112"/>
<polygon fill="black" stroke="black" points="480.5,-190.104 477,-180.104 473.5,-190.104 480.5,-190.104"/>
</g>
<!-- c_frost -->
<g id="node30" class="node"><title>c_frost</title>
<polygon fill="none" stroke="red" points="541.25,-108 412.75,-108 412.75,-72 541.25,-72 541.25,-108"/>
<text text-anchor="middle" x="477" y="-86.3" font-family="Times New Roman,serif" font-size="14.00">Cupboard (frosting)</text>
</g>
<!-- c_oven&#45;&gt;c_frost -->
<g id="edge31" class="edge"><title>c_oven&#45;&gt;c_frost</title>
<path fill="none" stroke="black" d="M477,-143.697C477,-135.983 477,-126.712 477,-118.112"/>
<polygon fill="black" stroke="black" points="480.5,-118.104 477,-108.104 473.5,-118.104 480.5,-118.104"/>
</g>
<!-- c_cake -->
<g id="node31" class="node"><title>c_cake</title>
<polygon fill="none" stroke="black" points="505,-36 449,-36 449,-0 505,-0 505,-36"/>
<text text-anchor="middle" x="477" y="-14.3" font-family="Times New Roman,serif" font-size="14.00">Cake 3</text>
</g>
<!-- c_frost&#45;&gt;c_cake -->
<g id="edge33" class="edge"><title>c_frost&#45;&gt;c_cake</title>
<path fill="none" stroke="black" d="M477,-71.6966C477,-63.9827 477,-54.7125 477,-46.1124"/>
<polygon fill="black" stroke="black" points="480.5,-46.1043 477,-36.1043 473.5,-46.1044 480.5,-46.1043"/>
</g>
</g>
</svg>
