<?xml version="1.0" encoding="UTF-8" standalone="no"?>
<!DOCTYPE svg PUBLIC "-//W3C//DTD SVG 1.1//EN"
 "http://www.w3.org/Graphics/SVG/1.1/DTD/svg11.dtd">
<!-- Generated by graphviz version 2.28.0 (20110507.0327)
 -->
<!-- Title: linear Pages: 1 -->
<svg width="242pt" height="404pt"
 viewBox="0.00 0.00 242.00 404.00" xmlns="http://www.w3.org/2000/svg" xmlns:xlink="http://www.w3.org/1999/xlink">
<g id="graph1" class="graph" transform="scale(1 1) rotate(0) translate(4 400)">
<title>linear</title>
<polygon fill="white" stroke="white" points="-4,5 -4,-400 239,-400 239,5 -4,5"/>
<!-- start -->
<g id="node1" class="node"><title>start</title>
<polygon fill="none" stroke="black" points="144,-396 90,-396 90,-360 144,-360 144,-396"/>
<text text-anchor="middle" x="117" y="-374.3" font-family="Times New Roman,serif" font-size="14.00">Start</text>
</g>
<!-- cupb -->
<g id="node2" class="node"><title>cupb</title>
<polygon fill="none" stroke="red" points="234,-324 1.42109e-014,-324 1.42109e-014,-288 234,-288 234,-324"/>
<text text-anchor="middle" x="117" y="-302.3" font-family="Times New Roman,serif" font-size="14.00">Round trip to cupboard for ingredients</text>
</g>
<!-- start&#45;&gt;cupb -->
<g id="edge2" class="edge"><title>start&#45;&gt;cupb</title>
<path fill="none" stroke="black" d="M117,-359.697C117,-351.983 117,-342.712 117,-334.112"/>
<polygon fill="black" stroke="black" points="120.5,-334.104 117,-324.104 113.5,-334.104 120.5,-334.104"/>
</g>
<!-- fridge -->
<g id="node3" class="node"><title>fridge</title>
<polygon fill="none" stroke="red" points="223,-252 11,-252 11,-216 223,-216 223,-252"/>
<text text-anchor="middle" x="117" y="-230.3" font-family="Times New Roman,serif" font-size="14.00">Round trip to fridge for ingredients</text>
</g>
<!-- cupb&#45;&gt;fridge -->
<g id="edge4" class="edge"><title>cupb&#45;&gt;fridge</title>
<path fill="none" stroke="black" d="M117,-287.697C117,-279.983 117,-270.712 117,-262.112"/>
<polygon fill="black" stroke="black" points="120.5,-262.104 117,-252.104 113.5,-262.104 120.5,-262.104"/>
</g>
<!-- oven -->
<g id="node4" class="node"><title>oven</title>
<polygon fill="none" stroke="red" points="201,-180 33,-180 33,-144 201,-144 201,-180"/>
<text text-anchor="middle" x="117" y="-158.3" font-family="Times New Roman,serif" font-size="14.00">Round trip to oven to bake</text>
</g>
<!-- fridge&#45;&gt;oven -->
<g id="edge6" class="edge"><title>fridge&#45;&gt;oven</title>
<path fill="none" stroke="black" d="M117,-215.697C117,-207.983 117,-198.712 117,-190.112"/>
<polygon fill="black" stroke="black" points="120.5,-190.104 117,-180.104 113.5,-190.104 120.5,-190.104"/>
</g>
<!-- frost -->
<g id="node5" class="node"><title>frost</title>
<polygon fill="none" stroke="red" points="225.25,-108 8.75,-108 8.75,-72 225.25,-72 225.25,-108"/>
<text text-anchor="middle" x="117" y="-86.3" font-family="Times New Roman,serif" font-size="14.00">Round trip to cupboard for frosting</text>
</g>
<!-- oven&#45;&gt;frost -->
<g id="edge8" class="edge"><title>oven&#45;&gt;frost</title>
<path fill="none" stroke="black" d="M117,-143.697C117,-135.983 117,-126.712 117,-118.112"/>
<polygon fill="black" stroke="black" points="120.5,-118.104 117,-108.104 113.5,-118.104 120.5,-118.104"/>
</g>
<!-- cake -->
<g id="node6" class="node"><title>cake</title>
<polygon fill="none" stroke="black" points="144,-36 90,-36 90,-0 144,-0 144,-36"/>
<text text-anchor="middle" x="117" y="-14.3" font-family="Times New Roman,serif" font-size="14.00">Cake</text>
</g>
<!-- frost&#45;&gt;cake -->
<g id="edge10" class="edge"><title>frost&#45;&gt;cake</title>
<path fill="none" stroke="black" d="M117,-71.6966C117,-63.9827 117,-54.7125 117,-46.1124"/>
<polygon fill="black" stroke="black" points="120.5,-46.1043 117,-36.1043 113.5,-46.1044 120.5,-46.1043"/>
</g>
</g>
</svg>
